<?xml version="1.0" standalone="no"?>
<!DOCTYPE svg PUBLIC "-//W3C//DTD SVG 1.1//EN" "http://www.w3.org/Graphics/SVG/1.1/DTD/svg11.dtd" >
<svg xmlns="http://www.w3.org/2000/svg">
  <metadata>Created by iconfont</metadata>
  <defs>
  <font id="cb-icon" horiz-adv-x="1024">
    <font-face
      font-family="cb-icon"
      font-weight="400"
      font-stretch="normal"
      units-per-em="1024"
      ascent="896"
      descent="-128"
    />
      <missing-glyph />
      
      <glyph glyph-name="skype" unicode="&#59885;" d="M860.8 323.2c19.2 48 16 217.6-108.8 329.6s-256 96-307.2 89.6c-44.8 32-182.4 54.4-272-57.6S160 454.4 160 454.4s-54.4-140.8 83.2-307.2 329.6-112 329.6-112 115.2-92.8 246.4 25.6 51.2 249.6 41.6 262.4z m-182.4-92.8c-9.6-12.8-35.2-70.4-163.2-80 0 0-124.8-3.2-182.4 86.4-6.4 25.6-12.8 54.4 19.2 70.4 32 16 57.6-22.4 57.6-22.4s41.6-70.4 108.8-57.6c0 0 54.4-3.2 76.8 54.4 3.2 60.8-60.8 57.6-60.8 57.6s-153.6 22.4-188.8 83.2-3.2 128 12.8 144 64 57.6 153.6 54.4c35.2 0 163.2-25.6 163.2-105.6 0-22.4-12.8-35.2-41.6-38.4-54.4 0-28.8 60.8-124.8 64-76.8-6.4-73.6-22.4-80-54.4 9.6-67.2 99.2-35.2 201.6-83.2 102.4-60.8 57.6-156.8 48-172.8z"  horiz-adv-x="1024" />
      
      <glyph glyph-name="files-download" unicode="&#59884;" d="M871.36 612.8l-194.88 208.96a32 32 0 0 1-23.36 10.24H336a32 32 0 0 1-32-32v-672a32 32 0 0 1 32-32h512a32 32 0 0 1 32 32V591.04a32 32 0 0 1-8.64 21.76zM816 160h-448V768H640l176-189.76zM208 672h-64v-704a32 32 0 0 1 32-32h512v64h-480zM624 608h-64v-192H480l112-128 112 128h-80V608z"  horiz-adv-x="1024" />
      
      <glyph glyph-name="focus" unicode="&#59883;" d="M508.8 576c-105.6 0-192-86.4-192-192s86.4-192 192-192 192 86.4 192 192-86.4 192-192 192z m0-320c-70.4 0-128 57.6-128 128s57.6 128 128 128 128-57.6 128-128-57.6-128-128-128zM960 416h-51.2C892.8 611.2 739.2 764.8 544 780.8V832h-64v-51.2C284.8 768 128 611.2 112 416H64v-64h48C128 156.8 284.8 0 480-16V-64h64v48c195.2 16 348.8 172.8 364.8 368H960v64zM544 48V128h-64v-80C320 64 192 192 176 352H256v64H176C192 576 320 704 480 716.8V640h64V716.8c160-16 284.8-144 300.8-300.8H768v-64h76.8c-16-160-140.8-288-300.8-304z"  horiz-adv-x="1024" />
      
      <glyph glyph-name="folder-add" unicode="&#59882;" d="M928 633.92H470.4l-96 121.92a32 32 0 0 1-26.24 12.16H96a32 32 0 0 1-32-32v-704a32 32 0 0 1 32-32h832a32 32 0 0 1 32 32V601.92a32 32 0 0 1-32 32zM896 64H128V704h204.8l96-121.92a32 32 0 0 1 24.96-12.16H896zM352 352v-64h128v-128h64v128h128v64h-128v128h-64v-128h-128z"  horiz-adv-x="1024" />
      
      <glyph glyph-name="folder-upload" unicode="&#59881;" d="M928 633.92H470.4l-96 121.92a32 32 0 0 1-26.24 12.16H96a32 32 0 0 1-32-32v-704a32 32 0 0 1 32-32h832a32 32 0 0 1 32 32V601.92a32 32 0 0 1-32 32zM896 64H128V704h204.8l96-121.92a32 32 0 0 1 24.96-12.16H896zM480 352v-192h64v192h80L512 480l-112-128H480z"  horiz-adv-x="1024" />
      
      <glyph glyph-name="platform" unicode="&#59880;" d="M115.2 550.4l384-179.2c3.2-3.2 9.6-3.2 12.8-3.2s9.6 0 12.8 3.2l384 179.2c12.8 6.4 19.2 16 19.2 28.8s-6.4 25.6-19.2 28.8l-384 172.8c-9.6 3.2-19.2 3.2-25.6 0L115.2 608c-12.8-3.2-19.2-16-19.2-28.8s6.4-22.4 19.2-28.8zM512 716.8l307.2-137.6-307.2-140.8-307.2 140.8L512 716.8zM883.2 419.2L512 249.6 140.8 419.2c-16 6.4-35.2 0-41.6-16-6.4-16 0-35.2 16-41.6l384-179.2c3.2-3.2 9.6-3.2 12.8-3.2s9.6 0 12.8 3.2l384 179.2c16 6.4 22.4 25.6 16 41.6-6.4 16-25.6 25.6-41.6 16zM883.2 224L512 51.2 140.8 224c-16 6.4-35.2 0-41.6-16-6.4-16 0-35.2 16-41.6l384-179.2c3.2-3.2 9.6-3.2 12.8-3.2s9.6 0 12.8 3.2l384 179.2c16 6.4 22.4 25.6 16 41.6-6.4 16-25.6 22.4-41.6 16z"  horiz-adv-x="1024" />
      
      <glyph glyph-name="bluetooth" unicode="&#59879;" d="M489.6-32c-6.4 0-9.6 0-16 3.2-9.6 6.4-16 16-16 28.8v297.6L246.4 96l-44.8 44.8 256 243.2-256 243.2L246.4 672l211.2-201.6V768c0 12.8 6.4 22.4 16 28.8 9.6 6.4 22.4 6.4 32 0l243.2-163.2c12.8-6.4 19.2-16 19.2-25.6 0-9.6-3.2-19.2-9.6-25.6L550.4 384l208-198.4c6.4-6.4 9.6-16 9.6-25.6 0-9.6-6.4-19.2-12.8-22.4l-246.4-163.2c-6.4-3.2-12.8-6.4-19.2-6.4z m32 355.2v-262.4l163.2 108.8-163.2 153.6z m0 384V448l163.2 153.6-163.2 105.6z"  horiz-adv-x="1024" />
      
      <glyph glyph-name="check-circle-Fill" unicode="&#59874;" d="M512 832C265.6 832 64 630.4 64 384s201.6-448 448-448 448 201.6 448 448S758.4 832 512 832z m-57.6-656L246.4 384l44.8 44.8 163.2-163.2 294.4 294.4 44.8-44.8-339.2-339.2z"  horiz-adv-x="1024" />
      
      <glyph glyph-name="menu" unicode="&#59875;" d="M96 672h832v-64H96zM96 416h832v-64H96zM96 160h832v-64H96z"  horiz-adv-x="1024" />
      
      <glyph glyph-name="check-circle" unicode="&#59876;" d="M512 768c211.2 0 384-172.8 384-384s-172.8-384-384-384S128 172.8 128 384 300.8 768 512 768m0 64C265.6 832 64 630.4 64 384s201.6-448 448-448 448 201.6 448 448S758.4 832 512 832zM454.4 176L246.4 384l44.8 44.8 163.2-163.2 294.4 294.4 44.8-44.8z"  horiz-adv-x="1024" />
      
      <glyph glyph-name="close-circle-Fill" unicode="&#59877;" d="M512 832C265.6 832 64 630.4 64 384s201.6-448 448-448 448 201.6 448 448S758.4 832 512 832z m182.4-582.4l-44.8-44.8-137.6 134.4-134.4-134.4-44.8 44.8 134.4 134.4-134.4 134.4 44.8 44.8 134.4-134.4 134.4 134.4 44.8-44.8-134.4-134.4 137.6-134.4z"  horiz-adv-x="1024" />
      
      <glyph glyph-name="close-circle" unicode="&#59878;" d="M512 768c211.2 0 384-172.8 384-384s-172.8-384-384-384S128 172.8 128 384 300.8 768 512 768m0 64C265.6 832 64 630.4 64 384s201.6-448 448-448 448 201.6 448 448S758.4 832 512 832zM694.4 518.4l-48 48-134.4-137.6-134.4 137.6-48-48 137.6-134.4-137.6-134.4 48-48 134.4 137.6 134.4-137.6 48 48-137.6 134.4z"  horiz-adv-x="1024" />
      
      <glyph glyph-name="alert" unicode="&#59396;" d="M736 384L512 768 288 384 64 0h896zM175.36 64l168 288L512 640l168.64-288 168-288h-672zM483.52 448h64v-180.48h-64zM515.52 176m-48 0a48 48 0 1 1 96 0 48 48 0 1 1-96 0Z"  horiz-adv-x="1024" />
      
      <glyph glyph-name="mail-list-Fill" unicode="&#59652;" d="M905.28 802.88h-704a32 32 0 0 1-32-32v-143.36H61.76v-96h107.52v-99.52H61.76v-96h107.52v-99.52H61.76v-96h107.52v-143.36a32 32 0 0 1 32-32h704a32 32 0 0 1 32 32V770.88a32 32 0 0 1-32 32zM560 608a110.08 110.08 0 1 0-109.76-109.76A109.76 109.76 0 0 0 560 608z m-198.72-448s5.76 202.88 195.2 202.88S758.72 160 758.72 160z"  horiz-adv-x="1024" />
      
      <glyph glyph-name="bar-chart" unicode="&#59397;" d="M854.4 32V800h-274.24v-216h-209.92v-220.16H160V32H64v-64h896v64zM644.16 736h146.24v-704h-146.24V736z m-209.92-216.64h145.92V32h-145.92V520zM224 299.84h146.24V32H224z"  horiz-adv-x="1024" />
      
      <glyph glyph-name="map" unicode="&#59653;" d="M661.44 660.48L376 803.2 64 668.48v-709.12l309.44 139.84 288-134.08L960 90.24V802.24z m-256 56.32l222.08-111.04v-554.88l-222.08 103.68zM128 626.56l213.76 92.16v-563.84L128 58.24z m768-493.44l-204.16-85.76V604.16l204.16 96z"  horiz-adv-x="1024" />
      
      <glyph glyph-name="bank-Fill" unicode="&#59398;" d="M974.08 504.96l-400 320a48 48 0 0 1-60.16 0l-400-320a48 48 0 0 1 30.08-85.44h64v-352H128v-96h832v96h-80v352h64a48 48 0 0 1 30.08 85.44zM592 419.52v-352h-96v352z m-288 0h96v-352h-96z m480-352h-96v352h96z"  horiz-adv-x="1024" />
      
      <glyph glyph-name="mail-prohibit" unicode="&#59654;" d="M128 626.24l361.28-365.76a32 32 0 0 1 45.44 0L896 626.24v-197.76h64V704a32 32 0 0 1-32 32H96a32 32 0 0 1-32-32v-640a32 32 0 0 1 32-32h465.92v64H128z m384-297.6L172.48 672h679.04zM778.56 320A182.08 182.08 0 1 1 960 137.92 182.08 182.08 0 0 1 778.56 320z m0-64a116.16 116.16 0 0 0 59.84-16.96l-160-160a116.16 116.16 0 0 0-16.96 59.84A118.08 118.08 0 0 0 778.56 256z m0-235.84a116.48 116.48 0 0 0-60.16 16.96l160 160a116.48 116.48 0 0 0 17.6-59.2 117.76 117.76 0 0 0-117.44-117.76z"  horiz-adv-x="1024" />
      
      <glyph glyph-name="automotive-Fill" unicode="&#59399;" d="M512 832a448 448 0 1 1 448-448A448 448 0 0 1 512 832z m0-800a352 352 0 1 0 352 352 352 352 0 0 0-352-352zM512 384m-48 0a48 48 0 1 1 96 0 48 48 0 1 1-96 0ZM512 656a272 272 0 1 1 272-272A272.32 272.32 0 0 1 512 656z m217.92-272a212.16 212.16 0 0 0-2.56-32h-108.48a116.48 116.48 0 0 0-26.24-45.12l54.4-93.76a218.88 218.88 0 0 0-55.68-32l-54.08 94.08a111.68 111.68 0 0 0-25.28-3.2 101.76 101.76 0 0 0-26.24 3.52l-60.16-91.52a212.8 212.8 0 0 0-54.4 33.92l59.2 89.92a110.4 110.4 0 0 0-24.96 44.16h-108.8a224 224 0 0 0-2.56 32 248.64 248.64 0 0 0 2.24 32h108.48a112.32 112.32 0 0 0 22.72 41.6l-55.68 96a232.64 232.64 0 0 0 54.72 32L480 491.2a108.16 108.16 0 0 0 32 4.8 113.28 113.28 0 0 0 32-4.8l51.84 94.08a216.64 216.64 0 0 0 55.04-32l-53.44-96a112.96 112.96 0 0 0 21.44-41.28h108.48a212.16 212.16 0 0 0 2.56-32z"  horiz-adv-x="1024" />
      
      <glyph glyph-name="mail-right" unicode="&#59655;" d="M915.2 248.64l-191.68-198.08-103.04 95.68-43.84-46.72 149.44-138.56 235.2 243.2-46.08 44.48zM489.28 260.48a32 32 0 0 1 45.44 0L896 626.24v-197.76h64V704a32 32 0 0 1-32 32H96a32 32 0 0 1-32-32v-640a32 32 0 0 1 32-32h433.92v64H128V626.24z m22.72 68.16L172.48 672h679.04z"  horiz-adv-x="1024" />
      
      <glyph glyph-name="automotive" unicode="&#59400;" d="M512 706.56A322.56 322.56 0 1 1 834.56 384 322.88 322.88 0 0 1 512 706.56zM768 416h-149.12a113.6 113.6 0 0 1-21.44 39.68L672 588.16A258.88 258.88 0 0 0 768 416z m-208-32a48 48 0 1 0-48 48 48 48 0 0 0 48-48z m55.36 236.8L544 490.88a115.2 115.2 0 0 1-32 5.12 108.16 108.16 0 0 1-32-4.8l-75.52 128A256 256 0 0 0 512 642.56a253.44 253.44 0 0 0 103.36-21.76zM352 586.24l76.16-129.6a112.32 112.32 0 0 1-22.72-41.6H256a258.56 258.56 0 0 0 96 171.2zM256 352h149.76a110.4 110.4 0 0 1 24.96-43.2l-81.92-125.12A258.24 258.24 0 0 0 256 352z m147.52-201.28l82.56 125.76a101.76 101.76 0 0 1 26.24-3.52 111.68 111.68 0 0 1 25.28 3.2l74.56-129.6a252.8 252.8 0 0 0-99.84-20.16 256 256 0 0 0-109.12 23.36z m264 27.84l-74.24 128a113.6 113.6 0 0 1 25.6 45.44H768a256 256 0 0 0-100.8-174.4zM512 832a448 448 0 1 1 448-448A448 448 0 0 1 512 832z m0-832a384 384 0 1 0 384 384 384 384 0 0 0-384-384z"  horiz-adv-x="1024" />
      
      <glyph glyph-name="mail-Fill" unicode="&#59656;" d="M912 736h-800A48 48 0 0 1 64 688v-608A48 48 0 0 1 112 32h800a48 48 0 0 1 48 48v608A48 48 0 0 1 912 736z m-62.08-145.92l-304-304a48 48 0 0 0-67.84 0l-304 304a48 48 0 1 0 67.84 67.84L512 387.84l270.08 270.08a48 48 0 1 0 67.84-67.84z"  horiz-adv-x="1024" />
      
      <glyph glyph-name="bar-chart-Fill" unicode="&#59401;" d="M64 68.16h896v-96H64zM669.44 768h224v-640h-224zM395.2 614.4h224V128h-224zM120 458.56h224V128h-224z"  horiz-adv-x="1024" />
      
      <glyph glyph-name="message-inquiry-Fill" unicode="&#59657;" d="M912 776h-800A48 48 0 0 1 64 728v-544a48 48 0 0 1 48-48h250.56l113.6-128a48.64 48.64 0 0 1 32-16H512a47.36 47.36 0 0 1 32 12.48l146.56 131.52h221.44a48 48 0 0 1 48 48v544a48 48 0 0 1-48 48zM544 291.2v-51.2h-52.16V288a176.96 176.96 0 0 0-91.84 36.48l33.6 48.32a128 128 0 0 1 74.24-28.8c29.76 0 42.56 11.52 42.56 33.6 0 50.24-137.6 49.28-137.6 136.96a88.32 88.32 0 0 0 79.04 89.6V656H544v-49.92a134.08 134.08 0 0 0 77.44-39.04l-38.4-40.96a83.2 83.2 0 0 1-56.96 24.64c-24.96 0-38.72-9.6-38.72-32 0-46.4 137.92-42.24 137.92-135.36A91.2 91.2 0 0 0 544 291.2z"  horiz-adv-x="1024" />
      
      <glyph glyph-name="bankcard" unicode="&#59402;" d="M928 743.04H96a32 32 0 0 1-32-32v-672a32 32 0 0 1 32-32h381.44v64H128v368h832v272a32 32 0 0 1-32 32z m-800-240v176h768v-176zM736 407.04a224 224 0 1 1 224-224 224 224 0 0 1-224 224z m0-382.08a160 160 0 1 0 160 160 160 160 0 0 0-160-160zM736 279.36h-64v-160h160v64h-96v96z"  horiz-adv-x="1024" />
      
      <glyph glyph-name="mail-prohibit-Fill" unicode="&#59658;" d="M912 736h-800A48 48 0 0 1 64 688v-608A48 48 0 0 1 112 32H608a207.68 207.68 0 1 0 352 222.4V688A48 48 0 0 1 912 736z m-62.08-145.92l-304-304a48 48 0 0 0-67.84 0l-304 304a48 48 0 1 0 67.84 67.84L512 387.84l270.08 270.08a48 48 0 1 0 67.84-67.84zM800 288a160 160 0 1 1 160-160 160 160 0 0 1-160 160z m-112.64-160a112 112 0 0 0 171.2 96L704 69.44a111.68 111.68 0 0 0-16.64 58.56zM800 15.36a111.68 111.68 0 0 0-58.56 16.64L896 186.56a112 112 0 0 0-96-171.2z"  horiz-adv-x="1024" />
      
      <glyph glyph-name="barcode" unicode="&#59403;" d="M91.2 800h56.32v-828.16H91.2zM876.48 796.16h56.32V-32h-56.32zM388.48 796.16h56.32v-676.8h-56.32zM513.6 796.16h56.32v-676.8h-56.32zM213.12 796.16h112.64v-676.8H213.12zM638.72 796.16h175.36v-676.8h-175.36zM388.48 48.96h56.32V-32h-56.32zM513.6 48.96h56.32V-32h-56.32zM213.12 48.96h112.64V-32H213.12zM638.72 48.96h175.36V-32h-175.36z"  horiz-adv-x="1024" />
      
      <glyph glyph-name="message-Fill" unicode="&#59659;" d="M912 776h-800A48 48 0 0 1 64 728v-544a48 48 0 0 1 48-48h250.56l113.6-128a48.64 48.64 0 0 1 32-16H512a47.36 47.36 0 0 1 32 12.48l146.56 131.52h221.44a48 48 0 0 1 48 48v544a48 48 0 0 1-48 48zM320 376a64 64 0 1 0 64 64 64 64 0 0 0-64-64z m192 0a64 64 0 1 0 64 64 64 64 0 0 0-64-64z m192 0a64 64 0 1 0 64 64 64 64 0 0 0-64-64z"  horiz-adv-x="1024" />
      
      <glyph glyph-name="bathroom-Fill" unicode="&#59404;" d="M442.56 684.16a51.52 51.52 0 1 1 50.88-51.52 51.2 51.2 0 0 1-50.88 51.52zM690.24 168.96a339.84 339.84 0 0 1 139.2 274.24 48 48 0 0 1-48 48h-17.6L704 768a48.32 48.32 0 0 1-47.04 38.08H328.64A48.32 48.32 0 0 1 281.6 768L224 491.2h-18.56a48 48 0 0 1-48-48 339.52 339.52 0 0 1 138.88-274.24l-44.16-166.72a48.32 48.32 0 0 1 8.32-41.6 49.28 49.28 0 0 1 38.08-18.56H688a47.68 47.68 0 0 1 48 60.16zM367.68 710.08h251.52l46.4-218.88H320zM240 352v32h512v-32z"  horiz-adv-x="1024" />
      
      <glyph glyph-name="message-report-Fill" unicode="&#59660;" d="M912 776h-800A48 48 0 0 1 64 728v-544a48 48 0 0 1 48-48h250.56l113.6-128a48.64 48.64 0 0 1 32-16H512a47.36 47.36 0 0 1 32 12.48l146.56 131.52h221.44a48 48 0 0 1 48 48v544a48 48 0 0 1-48 48z m-448-160h96v-192h-96z m48-368a64 64 0 1 0 64 64 64 64 0 0 0-64-64z"  horiz-adv-x="1024" />
      
      <glyph glyph-name="bankcard-Fill" unicode="&#59405;" d="M912 744h-800A48 48 0 0 1 64 696v-156.48h896V696a48 48 0 0 1-48 48zM64 88a48 48 0 0 1 48-48h362.56A283.84 283.84 0 0 0 448 160a288 288 0 0 0 512 180.8v134.72H64z m64 208h256v-96H128zM736 384a224 224 0 1 1 224-224 224 224 0 0 1-224 224z m0-384a160 160 0 1 0 160 160 160 160 0 0 0-160-160zM763.84 269.44h-64v-128h2.56l88.32-88.32 45.12 45.44-72 72v98.88z"  horiz-adv-x="1024" />
      
      <glyph glyph-name="message-problem-Fill" unicode="&#59661;" d="M912 776h-800A48 48 0 0 1 64 728v-544a48 48 0 0 1 48-48h250.56l113.6-128a48.64 48.64 0 0 1 32-16H512a47.36 47.36 0 0 1 32 12.48l146.56 131.52h221.44a48 48 0 0 1 48 48v544a48 48 0 0 1-48 48zM550.4 253.12h-76.8v82.56h76.8z m25.92 192a72 72 0 0 1-29.12-56.96V384h-76.8v9.28c0 32 13.76 57.6 51.52 90.56a64 64 0 0 1 27.84 51.2 32 32 0 0 1-36.16 34.24c-28.8 0-38.72-19.2-41.28-43.52H400a103.36 103.36 0 0 0 115.2 98.24c84.16 0 108.8-53.44 108.8-92.16 0-31.04-10.56-51.84-48-86.08z"  horiz-adv-x="1024" />
      
      <glyph glyph-name="bathroom" unicode="&#59406;" d="M859.2 458.88a32 32 0 0 1-32 32h-35.84l-67.84 315.84a32 32 0 0 1-32 25.28H331.84a32 32 0 0 1-32-25.28l-67.2-315.84H196.8a32 32 0 0 1-32-32 347.2 347.2 0 0 1 154.88-288l-51.84-192a32 32 0 0 1 5.44-27.84 32 32 0 0 1 25.6-12.48h426.24a32 32 0 0 1 25.6 12.48 32 32 0 0 1 5.44 27.84l-51.84 192a347.2 347.2 0 0 1 154.88 288zM357.44 768h309.12l59.52-277.12H297.92zM258.56 426.88H793.6a278.08 278.08 0 0 0-12.8-56.96H243.2a278.08 278.08 0 0 0-12.8 56.96zM683.52 0H340.48l37.12 138.56a349.44 349.44 0 0 1 268.8 0zM512 175.68a283.52 283.52 0 0 0-238.4 130.24h476.8A283.52 283.52 0 0 0 512 175.68zM463.36 716.16a55.68 55.68 0 1 1 55.68-55.36 55.36 55.36 0 0 1-55.68 55.36z"  horiz-adv-x="1024" />
      
      <glyph glyph-name="message-report" unicode="&#59662;" d="M928 768H96a32 32 0 0 1-32-32v-556.8a32 32 0 0 1 32-32h268.8l123.52-136.64A32 32 0 0 1 512 0a32 32 0 0 1 21.12 8l157.44 139.2H928a32 32 0 0 1 32 32V736a32 32 0 0 1-32 32z m-32-556.8h-217.6a32 32 0 0 1-21.12-8l-142.72-128-112 123.84a32 32 0 0 1-23.68 10.56H128V704h768zM483.2 611.84h64v-192h-64zM515.2 320m-48 0a48 48 0 1 1 96 0 48 48 0 1 1-96 0Z"  horiz-adv-x="1024" />
      
      <glyph glyph-name="bold" unicode="&#59407;" d="M653.12 430.4A207.04 207.04 0 0 1 524.48 800H224v-832h335.36a240.64 240.64 0 0 1 93.76 462.4zM288 736h236.48a143.36 143.36 0 1 0 0-288H288z m271.36-704H288V384h271.36a176.64 176.64 0 0 0 0-352z"  horiz-adv-x="1024" />
      
      <glyph glyph-name="message-problem" unicode="&#59663;" d="M928 760H96a32 32 0 0 1-32-32v-544a32 32 0 0 1 32-32h268.8l123.84-133.76a32 32 0 0 1 44.16-2.56l157.44 136.32H928a32 32 0 0 1 32 32v544a32 32 0 0 1-32 32z m-32-544h-217.6a32 32 0 0 1-20.8-7.68l-143.04-123.84-112.32 121.28a32 32 0 0 1-23.36 10.24H128v480h768zM478.72 332.48h71.36V256h-71.36zM519.04 561.6a30.08 30.08 0 0 0 32-32 58.88 58.88 0 0 0-25.6-47.36A105.6 105.6 0 0 1 480 398.08v-8.64h71.36v5.12A67.2 67.2 0 0 0 576 448a98.88 98.88 0 0 1 44.16 80c0 35.84-23.04 84.8-101.12 85.12a96 96 0 0 1-106.88-91.2H480c2.88 22.08 12.16 39.68 39.04 39.68z"  horiz-adv-x="1024" />
      
      <glyph glyph-name="bike-Fill" unicode="&#59408;" d="M193.28 332.8l488.96 143.04 5.12-18.56 92.8 24.32-67.84 255.36-175.04 8.32-4.48-96 104.96-4.8 19.84-75.84L289.28 460.8v114.56h75.52v96H125.12v-96h68.16v-242.56zM205.44 322.88a160 160 0 1 1 160-160 160 160 0 0 1-160 160zM733.44 418.88a208 208 0 1 1 208-208 208 208 0 0 1-208 208z"  horiz-adv-x="1024" />
      
      <glyph glyph-name="mail-download" unicode="&#59664;" d="M128 626.88l361.28-361.6a32 32 0 0 1 45.44 0L896 626.88v-198.4h64V704a32 32 0 0 1-32 32H96a32 32 0 0 1-32-32v-640a32 32 0 0 1 32-32h465.92v64H128z m384-293.76L173.12 672h677.76zM864.32 80v224h-64v-224h-96l128-128 128 128h-96z"  horiz-adv-x="1024" />
      
      <glyph glyph-name="bike" unicode="&#59409;" d="M186.24 377.92l508.16 148.48 9.92-37.76 61.76 16.32-67.52 255.04L528.32 768l-2.88-64 123.2-5.76 29.12-110.08-427.52-125.12V626.56h97.92v64H96.32v-64h89.92v-248.64zM221.12 313.28a156.8 156.8 0 1 1 156.48-156.48 156.8 156.8 0 0 1-156.48 156.48z m0-249.28a92.8 92.8 0 1 0 92.48 92.8A92.8 92.8 0 0 0 221.12 64zM761.28 403.52a198.4 198.4 0 1 1 198.4-198.4 198.4 198.4 0 0 1-198.4 198.4z m0-332.8a134.4 134.4 0 1 0 134.4 134.4 134.4 134.4 0 0 0-134.4-134.4z"  horiz-adv-x="1024" />
      
      <glyph glyph-name="music" unicode="&#59665;" d="M352 800v-544a160 160 0 0 1-104 38.72 164.16 164.16 0 1 1 162.56-173.44V526.08h409.92V256a160 160 0 0 1-104.32 38.72 164.16 164.16 0 1 1 162.56-173.44V800zM246.72 27.52A104.96 104.96 0 1 0 352 132.16a104.64 104.64 0 0 0-105.28-104.64zM410.24 585.6V740.48h410.24V585.6z m305.92-558.08a104.96 104.96 0 1 0 104.32 104.64 104.64 104.64 0 0 0-104.32-104.64z"  horiz-adv-x="1024" />
      
      <glyph glyph-name="building" unicode="&#59410;" d="M864 32V504a32 32 0 0 1-32 32h-128v-64h96V32h-144V768a32 32 0 0 1-32 32h-448a32 32 0 0 1-32-32v-736H64v-64h896v64zM208 32V736h384v-704zM288 432h224v-64H288zM288 592h224v-64H288z"  horiz-adv-x="1024" />
      
      <glyph glyph-name="music-Fill" unicode="&#59666;" d="M340.16 784v-476.48a170.56 170.56 0 1 1 96-160V492.48H768v-184.96a170.56 170.56 0 1 1 96-160V784z m96-195.52V688H768v-99.52z"  horiz-adv-x="1024" />
      
      <glyph glyph-name="buy" unicode="&#59411;" d="M866.24 604.8a32 32 0 0 1-32 30.4H704v7.36a207.36 207.36 0 0 1-54.72 136 189.44 189.44 0 0 1-139.2 51.84 185.92 185.92 0 0 1-139.84-52.48A197.76 197.76 0 0 1 320 646.72v-11.52H189.44a32 32 0 0 1-32-30.4L128-28.8a32 32 0 0 1 8.96-23.68A32 32 0 0 1 160-64h704a32 32 0 0 1 23.04 9.92 32 32 0 0 1 8.96 25.28zM384 647.68a131.52 131.52 0 0 0 32 86.08 124.8 124.8 0 0 0 93.44 32A120.64 120.64 0 0 0 640 642.56v-7.36h-256zM193.6 0l26.56 569.6H320v-92.8h64v92.8h256v-92.8h64v92.8h99.84L832 0z"  horiz-adv-x="1024" />
      
      <glyph glyph-name="musical-instruments" unicode="&#59667;" d="M769.6 332.48a147.84 147.84 0 0 1-14.4 129.92A201.6 201.6 0 0 1 624 544V610.24A64 64 0 0 1 672 672V768a64 64 0 0 1-64 64h-160a64 64 0 0 1-64-64v-96a64 64 0 0 1 48-61.76v-67.84a200.32 200.32 0 0 1-128-80 148.8 148.8 0 0 1-16-129.92 228.8 228.8 0 0 1-66.88-242.56c15.68-48 71.36-152 252.8-152a490.56 490.56 0 0 1 55.36 3.2c224-23.04 289.6 96 306.88 148.8a229.12 229.12 0 0 1-66.56 242.56z m-241.6-47.04a64 64 0 1 0-64-64 64 64 0 0 0 64 64z m-32 59.2V608h64v-263.36a109.12 109.12 0 0 1-64 0zM448 768h160v-96h-160z m328-657.92c-26.56-80.32-114.88-118.4-241.92-105.28h-9.6c-128-13.12-215.36 24.96-241.92 105.28a160 160 0 0 0 61.12 182.72l24.32 14.4-11.2 25.92a94.08 94.08 0 0 0 0 94.08 134.72 134.72 0 0 0 75.2 49.92v-172.8a124.8 124.8 0 0 1-32-81.6 128 128 0 0 1 253.44 0 124.8 124.8 0 0 1-32 81.6v173.44a137.28 137.28 0 0 0 77.76-50.56 94.08 94.08 0 0 0 0-94.08l-11.2-25.92 24.32-14.4a160 160 0 0 0 63.68-182.72z"  horiz-adv-x="1024" />
      
      <glyph glyph-name="building-Fill" unicode="&#59412;" d="M848 88v384a48 48 0 0 1-48 48h-96v-432h-64v640a48 48 0 0 1-48 48H184a48 48 0 0 1-48-48v-640H64v-96h896v96zM480 331.52H288v96h192zM480 480H288v96h192z"  horiz-adv-x="1024" />
      
      <glyph glyph-name="message-talk" unicode="&#59668;" d="M736 331.2V736a32 32 0 0 1-32 32H96a32 32 0 0 1-32-32v-404.8a32 32 0 0 1 32-32h117.12l82.56-96a32 32 0 0 1 22.4-11.2H320a32 32 0 0 1 21.76 8.64L448 299.2h256a32 32 0 0 1 32 32z m-64 32h-236.8a32 32 0 0 1-21.76-8.64l-90.88-84.48L252.16 352a32 32 0 0 1-24.32 11.2H128V704h544zM928 480h-135.04v-64H896v-264.96h-118.08a32 32 0 0 1-21.12-7.68l-77.12-66.88-59.52 64a32 32 0 0 1-23.68 10.24H544V240h-64v-120.96a32 32 0 0 1 32-32h70.72l71.04-76.8a32 32 0 0 1 23.36-10.24 32 32 0 0 1 20.8 7.68l91.84 79.36H928a32 32 0 0 1 32 32V448a32 32 0 0 1-32 32zM240 528m-48 0a48 48 0 1 1 96 0 48 48 0 1 1-96 0ZM400 528m-48 0a48 48 0 1 1 96 0 48 48 0 1 1-96 0ZM560 528m-48 0a48 48 0 1 1 96 0 48 48 0 1 1-96 0Z"  horiz-adv-x="1024" />
      
      <glyph glyph-name="buy-Fill" unicode="&#59413;" d="M884.8 580.8a48 48 0 0 1-47.68 43.2H704v3.52a203.52 203.52 0 0 1-54.72 136 187.84 187.84 0 0 1-139.2 52.48 185.6 185.6 0 0 1-139.52-53.12A192 192 0 0 1 320 631.36v-7.36H186.88a48 48 0 0 1-47.68-43.2l-26.88-576A47.04 47.04 0 0 1 124.48-32a48.32 48.32 0 0 1 35.52-16h704a48.32 48.32 0 0 1 35.52 16 47.04 47.04 0 0 1 12.16 37.12zM416 632.96a99.52 99.52 0 0 0 23.68 64 96 96 0 0 0 70.4 23.68A88.64 88.64 0 0 0 608 627.84v-3.84h-192zM416 448h-96v96h96z m288 0h-96v96h96z"  horiz-adv-x="1024" />
      
      <glyph glyph-name="outdoor" unicode="&#59669;" d="M954.56 17.92L550.72 619.2 640 750.08l-54.72 35.84L512 676.8l-73.28 109.12-53.12-35.84 87.68-130.88L69.44 17.92A32 32 0 0 1 96-32h832a32 32 0 0 1 26.56 49.92zM369.92 32L512 245.76 654.08 32z m360.96 0l-192 288a32 32 0 0 1-53.12 0l-192-288h-137.6L512 561.92 867.84 32z"  horiz-adv-x="1024" />
      
      <glyph glyph-name="bitcoin" unicode="&#59414;" d="M512-64a448 448 0 1 0 448 448 448 448 0 0 0-448-448z m0 832a384 384 0 1 1 384-384A384 384 0 0 1 512 768zM380.48 563.2h146.56a452.48 452.48 0 0 0 64-3.52 103.68 103.68 0 0 0 38.4-15.04 92.16 92.16 0 0 0 27.84-32 81.92 81.92 0 0 0 11.52-42.88 85.44 85.44 0 0 0-14.08-47.36 87.36 87.36 0 0 0-37.44-32 98.88 98.88 0 0 0 51.52-32 89.6 89.6 0 0 0 17.92-55.36 105.92 105.92 0 0 0-11.84-48.64 96 96 0 0 0-32-37.76 103.04 103.04 0 0 0-49.6-17.28c-12.16-1.6-41.92-2.24-89.28-2.56h-124.8z m74.24-60.8V416h102.08a47.68 47.68 0 0 1 30.08 13.12 43.52 43.52 0 0 1 0 56 40.96 40.96 0 0 1-27.84 13.12h-64z m0-145.92v-97.92h68.48a320 320 0 0 1 50.56 2.24 43.2 43.2 0 0 1 26.88 14.72 43.84 43.84 0 0 1 10.56 32 49.28 49.28 0 0 1-8 27.84 46.08 46.08 0 0 1-23.36 16.96 249.92 249.92 0 0 1-65.6 5.12zM480 208h64V128h-64zM480 640h64v-96h-64z"  horiz-adv-x="1024" />
      
      <glyph glyph-name="oil-Fill" unicode="&#59670;" d="M461.44 790.08h288v-96h-288zM765.44 629.44h-326.4a47.68 47.68 0 0 1-34.24-14.4l-185.6-187.52a47.68 47.68 0 0 1-13.76-33.92v-419.52a48 48 0 0 1 48-48h512a48 48 0 0 1 48 48v608a48 48 0 0 1-48 47.36z m-368-495.36h-96v224h96z"  horiz-adv-x="1024" />
      
      <glyph glyph-name="calendar" unicode="&#59415;" d="M224 352h224v-64H224zM576 352h224v-64h-224zM224 224h224v-64H224zM576 224h224v-64h-224zM928 700.16h-192V752a32 32 0 0 1-64 0v-51.84H352V752a32 32 0 0 1-64 0v-51.84H96a32 32 0 0 1-32-32V0a32 32 0 0 1 32-32h832a32 32 0 0 1 32 32V668.16a32 32 0 0 1-32 32zM896 32H128V448h768z m0 480H128V636.16h160V592a32 32 0 0 1 64 0V636.16h320V592a32 32 0 0 1 64 0V636.16h160z"  horiz-adv-x="1024" />
      
      <glyph glyph-name="omega" unicode="&#59671;" d="M896-48h-201.28a32 32 0 0 0-23.04 9.6 32 32 0 0 0-8.96 23.04l2.24 128a32 32 0 0 0 17.28 27.84 324.16 324.16 0 0 1 181.76 284.8C864 605.44 706.56 752 513.6 752S163.84 605.44 163.84 425.28a324.16 324.16 0 0 1 181.12-285.76 32 32 0 0 0 17.28-28.48v-35.2l2.56-90.88a33.6 33.6 0 0 0-9.28-23.36 32 32 0 0 0-22.72-9.6H128v64h171.84v76.16a386.24 386.24 0 0 0-198.4 333.12C99.84 640 285.44 816 513.6 816S928 640 928 425.28a385.92 385.92 0 0 0-198.72-333.44v-75.84H896z"  horiz-adv-x="1024" />
      
      <glyph glyph-name="calendar-check-Fill" unicode="&#59416;" d="M912 704H736V757.44a48 48 0 1 1-96 0V704h-256V752a48 48 0 0 1-96 0V704H112A48 48 0 0 1 64 656v-608A48 48 0 0 1 112 0h800a48 48 0 0 1 48 48v608A48 48 0 0 1 912 704zM489.28 130.56l-152.64 128 41.28 48.64 109.12-91.84 200.32 188.48 43.84-46.72zM864 501.44H160V608h128v-16a48 48 0 0 1 96 0V608h256v-10.56a48 48 0 0 1 96 0V608h128z"  horiz-adv-x="1024" />
      
      <glyph glyph-name="paint" unicode="&#59672;" d="M128 32h704v-64H128zM407.36 140.48a33.6 33.6 0 0 1 22.72-9.28 32 32 0 0 1 22.72 9.28L780.8 468.8a32 32 0 0 1 9.28 22.72 32 32 0 0 1-9.28 22.72l-275.52 275.2a32 32 0 0 1-45.12 0L132.16 461.44a32 32 0 0 1 0-45.44z m75.2 580.8l230.4-229.76-49.28-49.28H203.52zM887.04 320l-64 80.32-64-80.32a79.36 79.36 0 1 1 125.12 0z"  horiz-adv-x="1024" />
      
      <glyph glyph-name="bitcoin-Fill" unicode="&#59417;" d="M556.8 418.88a47.68 47.68 0 0 1 30.08 13.12 43.52 43.52 0 0 1 0 56 40.96 40.96 0 0 1-27.84 13.12h-104.32V416h48.32c28.8 0 46.72 1.92 53.76 2.88zM579.84 352a249.92 249.92 0 0 1-65.6 5.12h-59.52v-97.92h68.48a320 320 0 0 1 50.56 2.24 43.2 43.2 0 0 1 26.88 14.72 43.84 43.84 0 0 1 10.56 32 49.28 49.28 0 0 1-8 27.84 46.08 46.08 0 0 1-23.36 16zM512 832a448 448 0 1 1 448-448A448 448 0 0 1 512 832z m163.84-577.6a96 96 0 0 0-32-37.76 103.04 103.04 0 0 0-49.6-17.28c-8.32 0-25.6-1.6-50.56-2.24V128H480v68.8h-99.52V563.2H480V640h64v-76.8a387.2 387.2 0 0 0 48-3.52 103.68 103.68 0 0 0 38.4-15.04 92.16 92.16 0 0 0 27.84-32 81.92 81.92 0 0 0 11.52-42.88 85.44 85.44 0 0 0-14.08-47.36 87.36 87.36 0 0 0-37.44-32 98.88 98.88 0 0 0 51.52-32 89.6 89.6 0 0 0 17.92-55.36 105.92 105.92 0 0 0-11.84-48.64z"  horiz-adv-x="1024" />
      
      <glyph glyph-name="map-Fill" unicode="&#59673;" d="M349.76 765.12L98.56 650.88v-676.16L349.76 96V765.12zM413.76 765.44V96l177.92-90.24V671.68l-177.92 93.76zM898.56 790.72l-242.88-121.6v-664.96l242.88 106.88V790.72z"  horiz-adv-x="1024" />
      
      <glyph glyph-name="calendar-check" unicode="&#59418;" d="M662.08 328.96l-44.16 46.08-180.16-171.84-96.96 83.2-41.6-48.64 140.8-120.96 222.08 212.16zM896 700.16h-192V752a32 32 0 0 1-64 0v-51.84H320V752a32 32 0 0 1-64 0v-51.84H64a32 32 0 0 1-32-32V0a32 32 0 0 1 32-32h832a32 32 0 0 1 32 32V668.16a32 32 0 0 1-32 32zM864 32H96V448h768z m0 480H96V636.16h160V592a32 32 0 0 1 64 0V636.16h320V592a32 32 0 0 1 64 0V636.16h160z"  horiz-adv-x="1024" />
      
      <glyph glyph-name="message" unicode="&#59674;" d="M928 768H96a32 32 0 0 1-32-32v-556.8a32 32 0 0 1 32-32h268.8l123.52-136.64A32 32 0 0 1 512 0a32 32 0 0 1 21.12 8l157.44 139.2H928a32 32 0 0 1 32 32V736a32 32 0 0 1-32 32z m-32-556.8h-217.6a32 32 0 0 1-21.12-8l-142.72-128-112 123.84a32 32 0 0 1-23.68 10.56H128V704h768zM288 440m-64 0a64 64 0 1 1 128 0 64 64 0 1 1-128 0ZM512 440m-64 0a64 64 0 1 1 128 0 64 64 0 1 1-128 0ZM736 440m-64 0a64 64 0 1 1 128 0 64 64 0 1 1-128 0Z"  horiz-adv-x="1024" />
      
      <glyph glyph-name="camera-2" unicode="&#59419;" d="M685.44 464A173.44 173.44 0 1 1 512 290.56a173.44 173.44 0 0 1 173.44 173.44z m-282.88 0A109.44 109.44 0 1 0 512 354.56a109.44 109.44 0 0 0-109.44 109.44zM884.8 8.64l-189.12 155.52a352 352 0 1 1-358.4-5.44L140.16 9.6A32 32 0 0 1 128-26.24a32 32 0 0 1 32-21.76h704a32 32 0 0 1 20.16 56.64zM224 464a288 288 0 1 0 288-288 288 288 0 0 0-288 288z m32-448l148.16 112a348.8 348.8 0 0 1 227.84 4.48l143.04-117.44z"  horiz-adv-x="1024" />
      
      <glyph glyph-name="oil" unicode="&#59675;" d="M768 672H421.44a32 32 0 0 1-23.04-9.92L200.96 454.4a32 32 0 0 1-8.96-22.08V-32a32 32 0 0 1 32-32h544a32 32 0 0 1 32 32V640a32 32 0 0 1-32 32z m-32-672H256V419.84L434.88 608H736zM448 832h320v-64H448zM320 352h64v-224h-64z"  horiz-adv-x="1024" />
      
      <glyph glyph-name="calendar-Fill" unicode="&#59420;" d="M912 709.44H736v48a48 48 0 1 1-96 0v-48h-256v48a48 48 0 0 1-96 0v-48H112A48 48 0 0 1 64 661.44v-608a48 48 0 0 1 48-48h800a48 48 0 0 1 48 48v608a48 48 0 0 1-48 48zM480 181.44H288v64h192z m0 128H288v64h192z m256-128h-192v64h192z m0 128h-192v64h192z m128 192H160v112h128v-16a48 48 0 0 1 96 0v16h256v-16a48 48 0 0 1 96 0v16h128z"  horiz-adv-x="1024" />
      
      <glyph glyph-name="minus" unicode="&#59676;" d="M512 832a448 448 0 1 1 448-448A448 448 0 0 1 512 832z m0-832a384 384 0 1 0 384 384 384 384 0 0 0-384-384zM320 416h384v-64H320z"  horiz-adv-x="1024" />
      
      <glyph glyph-name="camera-2-Fill" unicode="&#59421;" d="M514.24 557.76a80.64 80.64 0 1 1 80-80.64 80.32 80.32 0 0 1-80 80.64zM881.92 33.92l-168.96 169.92a337.28 337.28 0 1 1-400 1.92l-170.88-171.84A48 48 0 0 1 176-48h672a48 48 0 0 1 33.92 81.92z m-367.68 266.56a176.64 176.64 0 1 0 176 176.64 176.32 176.32 0 0 0-176-176.64z"  horiz-adv-x="1024" />
      
      <glyph glyph-name="outdoor-Fill" unicode="&#59677;" d="M377.28-4.48h269.44L512 227.52l-134.72-232zM936.32 69.44L567.68 634.56l76.8 118.72-80.64 52.16L512 722.56l-55.68 82.88-80.64-52.16 77.44-118.72L87.68 69.44A47.68 47.68 0 0 1 128-4.48h138.24l204.16 352a48.32 48.32 0 0 0 83.2 0l204.16-352H896a47.68 47.68 0 0 1 40.32 73.92z"  horiz-adv-x="1024" />
      
      <glyph glyph-name="camera-Fill" unicode="&#59422;" d="M512 336m-120.64 0a120.64 120.64 0 1 1 241.28 0 120.64 120.64 0 1 1-241.28 0ZM912 608h-150.08L678.4 744.96A48.32 48.32 0 0 1 637.44 768H384a47.68 47.68 0 0 1-40.96-23.04L260.16 608H112A48 48 0 0 1 64 560v-512A48 48 0 0 1 112 0h800a48 48 0 0 1 48 48v512A48 48 0 0 1 912 608zM512 112a224 224 0 1 0 224 224 224 224 0 0 0-224-224z"  horiz-adv-x="1024" />
      
      <glyph glyph-name="pause-Fill" unicode="&#59678;" d="M512 832a448 448 0 1 1 448-448A448 448 0 0 1 512 832z m-72-608h-64V544h64z m192 0h-64V544h64z"  horiz-adv-x="1024" />
      
      <glyph glyph-name="camera-off-Fill" unicode="&#59423;" d="M624 371.52l-112-112a112 112 0 0 1 112 112zM883.52 624h-7.68L704 451.84a203.52 203.52 0 0 0 16.32-80.32 208.32 208.32 0 0 0-208-208 199.68 199.68 0 0 0-80.64 16.32l-120.64-120.32h572.48A44.48 44.48 0 0 1 928 104V579.52a44.48 44.48 0 0 1-44.48 44.48zM442.88 269.44L915.52 742.08l-45.44 45.44-140.48-140.48-15.36 24.96-15.68 26.24-32 52.16a44.8 44.8 0 0 1-38.08 21.44h-235.2a44.16 44.16 0 0 1-38.08-21.44l-77.12-128h-137.6A44.48 44.48 0 0 1 96 579.52v-475.52A52.48 52.48 0 0 1 96 96a42.88 42.88 0 0 1 15.04-26.88 43.84 43.84 0 0 1 28.8-10.56h1.6l-26.88-26.56-9.28-9.28 45.44-45.44L205.44 32l163.52 163.52zM512 579.52a224 224 0 0 0 58.88-8.32 309.12 309.12 0 0 0 30.08-11.84 192 192 0 0 0 26.24-14.72l-66.56-66.56-4.16-4.16a109.76 109.76 0 0 1-32 8.64 74.88 74.88 0 0 1-12.16 0 112.32 112.32 0 0 1-112-112 74.88 74.88 0 0 1 0-12.16 91.2 91.2 0 0 1 8.64-32l-7.68-7.68-64-64a188.8 188.8 0 0 0-14.4 26.24 189.76 189.76 0 0 0-11.84 30.08A208.64 208.64 0 0 0 512 579.52z"  horiz-adv-x="1024" />
      
      <glyph glyph-name="palette-Fill" unicode="&#59679;" d="M809.92 704A440.64 440.64 0 0 1 512 815.68a400.32 400.32 0 0 1-314.56-135.68 416 416 0 0 1-98.56-313.6c21.44-216.96 226.24-360.96 352-400.96a243.52 243.52 0 0 1 73.92-13.44 88.96 88.96 0 0 1 71.04 27.52 80.96 80.96 0 0 1 6.72 94.08l-1.92 3.84c-40 68.48-43.52 111.36-32 128s32 16.64 45.44 16.64a32 32 0 0 1 7.68 0H640c56.64 0 162.24-3.2 231.04 64A206.72 206.72 0 0 1 928 443.52 362.56 362.56 0 0 1 809.92 704z m-480-280.32a64 64 0 1 0 64 64 64 64 0 0 0-63.68-63.04z m187.84 101.44a64 64 0 1 0 64 64 64 64 0 0 0-63.68-63.04z m171.52-88a64 64 0 1 0 64 64 64 64 0 0 0-63.68-63.04z"  horiz-adv-x="1024" />
      
      <glyph glyph-name="card" unicode="&#59424;" d="M928 752H96a32 32 0 0 1-32-32v-672a32 32 0 0 1 32-32h832a32 32 0 0 1 32 32v672a32 32 0 0 1-32 32z m-32-64v-160H128v160z m-768-608v384h768v-384zM576 336h192v-64h-192z"  horiz-adv-x="1024" />
      
      <glyph glyph-name="panorama" unicode="&#59680;" d="M885.76 734.4A1280 1280 0 0 0 512 680a1284.16 1284.16 0 0 0-373.76 54.4L96 748.8v-729.28L138.24 32a1312 1312 0 0 0 747.52 0l42.24-14.08V748.8zM864 106.56a1386.24 1386.24 0 0 1-704 0V661.12a1398.4 1398.4 0 0 1 352-45.12 1398.4 1398.4 0 0 1 352 45.12zM341.44 375.36a58.88 58.88 0 0 1 22.72 20.48 52.48 52.48 0 0 1 8.64 29.12 60.16 60.16 0 0 1-19.2 47.68 76.48 76.48 0 0 1-51.84 16.64 70.4 70.4 0 0 1-48.32-17.28 52.8 52.8 0 0 1-18.88-43.84h43.52A29.12 29.12 0 0 0 284.8 448a21.76 21.76 0 0 0 16.96 7.68 24 24 0 0 0 19.52-8.64 35.52 35.52 0 0 0 7.04-21.76 38.08 38.08 0 0 0-6.72-24 24 24 0 0 0-20.16-8.64H278.4v-32h23.04a28.8 28.8 0 0 0 22.4-8.64 40 40 0 0 0 7.68-27.2 34.24 34.24 0 0 0-8.32-23.36 28.16 28.16 0 0 0-21.76-9.28 23.36 23.36 0 0 0-18.88 8.96A34.88 34.88 0 0 0 275.2 320H232a56.32 56.32 0 0 1 20.48-48 76.48 76.48 0 0 1 48.96-16 79.04 79.04 0 0 1 53.44 17.6 61.44 61.44 0 0 1 20.8 48.96 59.52 59.52 0 0 1-8.96 32 54.72 54.72 0 0 1-25.28 20.8zM454.72 438.72a32 32 0 0 0 28.16 15.36 72.32 72.32 0 0 0 17.6-1.92 107.2 107.2 0 0 0 16.64-5.12l7.68 32a108.48 108.48 0 0 1-20.16 7.04 96 96 0 0 1-22.08 2.56 77.76 77.76 0 0 1-59.52-25.6 98.88 98.88 0 0 1-23.36-68.8v-48.64a101.12 101.12 0 0 1 20.48-66.24 66.56 66.56 0 0 1 53.12-24 64 64 0 0 1 50.56 21.12 78.4 78.4 0 0 1 20.16 55.04 96 96 0 0 1-14.4 54.72 47.68 47.68 0 0 1-40.96 20.8 62.08 62.08 0 0 1-24.96-4.8 57.92 57.92 0 0 1-19.2-13.44v7.04a71.36 71.36 0 0 0 10.24 42.88z m0-69.44a37.76 37.76 0 0 0 17.6 3.84 22.08 22.08 0 0 0 19.2-11.2 54.72 54.72 0 0 0 7.04-30.4 56.96 56.96 0 0 0-7.04-29.76 20.8 20.8 0 0 0-18.88-12.16 24 24 0 0 0-21.44 14.4 89.28 89.28 0 0 0-8 40.96v14.08a27.52 27.52 0 0 0 12.16 10.24zM640 256a64 64 0 0 1 50.88 22.72 96 96 0 0 1 19.2 64V403.2a94.08 94.08 0 0 1-19.52 64 67.84 67.84 0 0 1-101.76 0 96 96 0 0 1-19.2-64v-62.08a92.8 92.8 0 0 1 19.52-64A64 64 0 0 1 640 256z m-26.24 152a71.04 71.04 0 0 0 7.04 34.88 20.8 20.8 0 0 0 19.2 12.48 21.12 21.12 0 0 0 18.88-12.48 74.88 74.88 0 0 0 7.04-34.88v-70.08a74.24 74.24 0 0 0-7.04-35.2 20.8 20.8 0 0 0-38.08 0 74.24 74.24 0 0 0-7.04 35.2zM779.84 404.48a36.48 36.48 0 0 1 27.2 12.16 43.84 43.84 0 0 1 11.2 30.08 44.8 44.8 0 0 1-11.2 30.08 35.84 35.84 0 0 1-27.2 12.48 35.2 35.2 0 0 1-27.2-12.48 43.84 43.84 0 0 1-11.52-30.08 42.56 42.56 0 0 1 11.52-30.08 35.84 35.84 0 0 1 27.2-12.16zM768 461.44a16 16 0 0 0 12.16 6.08 15.04 15.04 0 0 0 11.84-6.08 21.76 21.76 0 0 0 5.12-14.72 20.8 20.8 0 0 0-5.12-14.72 15.36 15.36 0 0 0-11.84-5.44 15.68 15.68 0 0 0-12.16 5.76 21.76 21.76 0 0 0-4.8 14.4 23.36 23.36 0 0 0 4.8 14.72z"  horiz-adv-x="1024" />
      
      <glyph glyph-name="card-sim" unicode="&#59425;" d="M928 736H312.32a32 32 0 0 1-24.32-13.44l-217.92-303.04a32 32 0 0 1-6.08-18.56V64a32 32 0 0 1 32-32h832a32 32 0 0 1 32 32V704a32 32 0 0 1-32 32z m-256-640h-288v192h288z m224 0h-160v256H320v-256H128v294.72L328.64 672h65.92v-128h64V672H544v-128h64V672h85.44v-128h64V672H896z"  horiz-adv-x="1024" />
      
      <glyph glyph-name="pause" unicode="&#59681;" d="M512 832a448 448 0 1 1 448-448A448 448 0 0 1 512 832z m0-832a384 384 0 1 0 384 384 384 384 0 0 0-384-384zM384 544h64v-320h-64zM576 544h64v-320h-64z"  horiz-adv-x="1024" />
      
      <glyph glyph-name="calendar-reservation-Fill" unicode="&#59426;" d="M912 709.44H736v48a48 48 0 1 1-96 0v-48h-256v48a48 48 0 0 1-96 0v-48H112A48 48 0 0 1 64 661.44v-608a48 48 0 0 1 48-48h412.48A272 272 0 1 0 960 330.24V661.44a48 48 0 0 1-48 48zM352 181.44H160v64h192z m0 128H160v64h192z m512 192H160v112h128v-16a48 48 0 0 1 96 0v16h256v-16a48 48 0 0 1 96 0v16h128zM736 405.44a224 224 0 1 1 224-224 224 224 0 0 1-224 224z m0-384a160 160 0 1 0 160 160 160 160 0 0 0-160-160zM763.84 289.28h-64v-128h2.56l88.32-88 45.12 45.12-72 72v98.88z"  horiz-adv-x="1024" />
      
      <glyph glyph-name="phone-Fill" unicode="&#59682;" d="M253.76 792.32l-118.4-98.56a38.72 38.72 0 0 1-13.76-36.16c11.2-73.6 57.28-280 202.88-429.76a1088 1088 0 0 1 410.24-256 38.08 38.08 0 0 1 37.12 10.56l138.24 144.96a40 40 0 0 1 0 55.36l-120 123.2a38.4 38.4 0 0 1-54.72 0l-82.56-84.16a38.08 38.08 0 0 0-45.44-7.04 622.72 622.72 0 0 0-256 263.68 39.36 39.36 0 0 0 7.04 45.12c20.8 22.08 52.48 54.08 75.2 77.12a40 40 0 0 1 0 55.36l-128 134.72a37.76 37.76 0 0 1-51.84 1.6z"  horiz-adv-x="1024" />
      
      <glyph glyph-name="card-id" unicode="&#59427;" d="M928 752H96a32 32 0 0 1-32-32v-672a32 32 0 0 1 32-32h832a32 32 0 0 1 32 32v672a32 32 0 0 1-32 32z m-32-672H128v608h768zM576 496h256v-64h-256zM608 336h224v-64h-224zM381.12 333.44A128 128 0 0 0 512 208.96l64 4.16a202.24 202.24 0 0 1-106.24 165.44 124.8 124.8 0 1 1-177.28 0A194.24 194.24 0 0 1 192 212.16l64-2.24a122.24 122.24 0 0 0 125.12 123.52z m0 192A60.8 60.8 0 1 0 320 466.24a61.12 61.12 0 0 0 61.12 60.48z"  horiz-adv-x="1024" />
      
      <glyph glyph-name="pet-fill" unicode="&#59683;" d="M376.64 486.72a98.24 98.24 0 0 1 21.44 2.56 105.6 105.6 0 0 1 71.36 69.76 188.8 188.8 0 0 1 3.52 109.44c-20.8 85.12-86.4 139.84-149.44 124.16s-96-94.08-74.88-179.2c18.56-75.2 71.36-126.72 128-126.72zM249.6 315.52c48 24.32 60.16 93.12 28.16 156.8s-96 96-143.36 70.4-60.16-94.72-28.16-156.8A130.88 130.88 0 0 1 214.4 307.2a75.84 75.84 0 0 1 35.2 8.32zM618.56 485.44a96 96 0 0 1 21.44-2.56 112.32 112.32 0 0 1 73.92 32A190.08 190.08 0 0 1 768 608a190.08 190.08 0 0 1-3.52 109.76 105.92 105.92 0 0 1-71.04 69.44 105.6 105.6 0 0 1-96-28.48 190.08 190.08 0 0 1-54.08-96 190.08 190.08 0 0 1 3.52-109.76 105.92 105.92 0 0 1 71.68-67.52zM889.6 544c-48 24.32-111.04-6.4-143.36-70.4s-19.84-132.48 28.16-156.8a75.84 75.84 0 0 1 35.2-8.32 130.88 130.88 0 0 1 108.16 78.72c32 60.8 19.84 131.2-28.16 156.8zM664 304.96A179.2 179.2 0 0 1 512 413.12a178.24 178.24 0 0 1-152.64-110.72c-113.6-32-183.36-93.76-183.36-167.36a128 128 0 0 1 34.56-84.16c51.84-57.28 152.96-85.76 301.44-85.76s248 28.48 297.6 83.2a136.96 136.96 0 0 1 10.56 12.48 123.52 123.52 0 0 1 26.24 74.24c0 77.76-69.44 142.08-182.4 169.92z"  horiz-adv-x="1024" />
      
      <glyph glyph-name="camera" unicode="&#59428;" d="M924.48 604.48h-166.4l-92.16 145.28a32 32 0 0 1-25.92 14.72h-264.64a32 32 0 0 1-27.2-15.04L256 604.48H92.48a32 32 0 0 1-32-32v-544a32 32 0 0 1 32-32h832a32 32 0 0 1 32 32v544a32 32 0 0 1-32 32z m-32-544h-768v480h150.08a32 32 0 0 1 27.2 15.04l91.2 144.96h228.16l92.48-145.28a32 32 0 0 1 26.88-14.72h152zM508.48 508.48a192 192 0 1 1 192-192 192 192 0 0 1-192 192z m0-320a128 128 0 1 0 128 128 128 128 0 0 0-128-128z"  horiz-adv-x="1024" />
      
      <glyph glyph-name="phone" unicode="&#59684;" d="M748.16-64h-6.08c-10.88 2.24-269.44 54.4-448 234.56S66.56 612.8 64 624a32 32 0 0 0 9.28 28.8l177.92 170.24a32 32 0 0 0 45.12 0l179.84-184.64a32 32 0 0 0 0-45.12c-23.04-22.4-77.76-76.8-105.28-105.28a592 592 0 0 1 247.68-250.56l113.6 113.6a32 32 0 0 0 22.72 9.28 32 32 0 0 0 22.72-9.6l173.76-175.04a32 32 0 0 0 0-44.8L771.2-54.4a32 32 0 0 0-23.04-9.6zM130.88 618.88c13.44-58.56 68.16-261.76 208.32-402.56s340.48-198.72 398.72-213.12l145.28 149.12-128 129.92-106.88-106.56a32 32 0 0 0-34.56-7.04A637.12 637.12 0 0 0 302.72 480a32 32 0 0 0 5.12 34.56c13.44 15.36 68.48 70.08 100.16 101.44L272.64 754.88z"  horiz-adv-x="1024" />
      
      <glyph glyph-name="card-id-Fill" unicode="&#59429;" d="M951.04 732.48h-800a48 48 0 0 1-48-48v-608a48 48 0 0 1 48-48h800a48 48 0 0 1 48 48v608a48 48 0 0 1-48 48zM512 186.24c0 12.8-12.8 126.4-128 126.4s-122.88-112.32-123.52-125.12l-64 1.92a197.12 197.12 0 0 0 100.16 168A128 128 0 0 0 256 448a124.16 124.16 0 1 0 211.52-88.96A204.48 204.48 0 0 0 576 190.4z m350.08 82.24h-215.04v64h213.44z m0 160h-250.56v64h248.96zM321.28 446.72a61.76 59.84 90 1 1 119.68 0 61.76 59.84 90 1 1-119.68 0Z"  horiz-adv-x="1024" />
      
      <glyph glyph-name="pencil-ruler" unicode="&#59685;" d="M918.72 599.04l-192 192a32 32 0 0 1-45.44 0l-576-576a32 32 0 0 1 0-45.44l192-192a32 32 0 0 1 22.72-9.6 32 32 0 0 1 22.72 9.28l576 576a32 32 0 0 1 0 45.76zM320 45.12L173.12 192l80.64 80.64L334.72 192l45.44 45.12-81.28 80.32 121.92 121.92 81.28-81.28 45.12 45.44-81.28 80.96L576 592.96 655.68 512l45.12 45.44-80.96 80.64L704 722.88 850.88 576zM258.24 450.24l45.44 45.44-128 128 96 96 128-128L444.8 636.8 294.72 789.76a32 32 0 0 1-45.44 0L106.56 647.36a33.6 33.6 0 0 1-10.56-22.72 32 32 0 0 1 9.28-22.72zM916.8 167.68l-150.72 150.4-45.12-45.12L864 131.84v-97.6h-99.2l-141.12 141.44-45.44-45.44 150.72-150.4a32 32 0 0 1 22.72-9.6H896a32 32 0 0 1 32 32v142.72a32 32 0 0 1-11.2 22.72z"  horiz-adv-x="1024" />
      
      <glyph glyph-name="cart-add-Fill" unicode="&#59430;" d="M341.44 124.48a78.72 78.72 0 1 1 78.72-78.72 78.72 78.72 0 0 1-78.72 78.72zM747.2 124.48a78.72 78.72 0 1 1 78.4-78.72 78.72 78.72 0 0 1-78.4 78.72zM942.4 664.32a47.68 47.68 0 0 1-38.4 19.2H279.04l-10.88 76.16A47.36 47.36 0 0 1 220.8 800H72v-96H179.2l66.88-471.36A48.32 48.32 0 0 1 293.76 192h496.32a47.68 47.68 0 0 1 46.08 34.56l113.92 395.84a47.68 47.68 0 0 1-7.68 41.92zM720 416h-128v-128h-64v128h-128v64h128V608h64v-128h128z"  horiz-adv-x="1024" />
      
      <glyph glyph-name="pencil-ruler-Fill" unicode="&#59686;" d="M918.72 599.04l-192 192a32 32 0 0 1-45.44 0L576 683.52l26.24-26.24 100.16-100.16L655.68 512l-32 32-94.4 94.08-108.48-108.16 26.24-26.24 68.16-68.16 32-32-45.12-45.44-32 32-68.48 68.48-25.92 25.92-121.92-121.92 26.24-25.92 100.16-100.48L334.72 192l-32 32-94.08 96-103.36-105.6a32 32 0 0 1 0-45.44l192-192A32 32 0 0 1 320-32a32 32 0 0 1 22.72 9.28l576 576a32 32 0 0 1 0 45.76zM258.24 450.24l187.84 187.84-151.36 151.68a32 32 0 0 1-45.44 0L106.56 647.36a33.6 33.6 0 0 1-10.56-22.72 32 32 0 0 1 9.28-22.72zM916.8 167.68l-155.52 155.52-187.84-187.84 155.52-155.52a32 32 0 0 1 22.72-9.6H896a32 32 0 0 1 32 32v142.72a32 32 0 0 1-11.2 22.72z"  horiz-adv-x="1024" />
      
      <glyph glyph-name="calendar-reservation" unicode="&#59431;" d="M256 352h192v-64H256zM256 224h192v-64H256zM928 700.16h-192V752a32 32 0 0 1-64 0v-51.84H352V752a32 32 0 0 1-64 0v-51.84H96a32 32 0 0 1-32-32V0a32 32 0 0 1 32-32h416v64H128V448h768v-96h64V668.16a32 32 0 0 1-32 32zM896 512H128V636.16h160V592a32 32 0 0 1 64 0V636.16h320V592a32 32 0 0 1 64 0V636.16h160zM760 336A200 200 0 1 1 960 136a200 200 0 0 1-200 200z m0-336A136 136 0 1 0 896 136 136.32 136.32 0 0 0 760 0zM773.44 230.08h-40.32v-120.96h1.92l-0.64-1.6 96.32-55.68 20.16 34.88-77.44 44.8v98.56z"  horiz-adv-x="1024" />
      
      <glyph glyph-name="palette" unicode="&#59687;" d="M805.44 721.6A432.32 432.32 0 0 1 512 832a397.76 397.76 0 0 1-309.44-134.4 442.56 442.56 0 0 1-103.68-330.56c21.76-226.24 228.8-376.32 354.24-416a228.48 228.48 0 0 1 70.72-13.44 77.44 77.44 0 0 1 59.84 22.08 71.68 71.68 0 0 1 3.84 83.2c-40.32 71.36-52.8 130.24-34.56 161.6a69.76 69.76 0 0 0 62.4 26.24h5.76a199.04 199.04 0 0 0 24.32 0c55.68 0 160-2.88 225.92 62.4A207.04 207.04 0 0 1 928 448a376.96 376.96 0 0 1-122.56 273.6z m21.12-384c-47.36-46.72-133.76-45.12-179.84-44.16a217.6 217.6 0 0 1-33.92 0 128 128 0 0 1-115.2-57.92c-21.44-37.12-32-106.24 32-224a66.24 66.24 0 0 0 4.16-11.52 206.4 206.4 0 0 0-112.96 32c-109.44 55.36-243.2 177.92-258.88 342.72a375.68 375.68 0 0 0 88.96 280.96A331.2 331.2 0 0 0 512 768h15.04a373.76 373.76 0 0 0 235.52-93.76A310.72 310.72 0 0 0 864 446.4a143.68 143.68 0 0 0-37.44-108.48zM600 465.92a96 96 0 1 1 96 99.2 97.92 97.92 0 0 1-96-99.2z m128 0a32 32 0 1 0-32 35.2 33.6 33.6 0 0 0 32.64-35.2zM488.96 681.28a99.52 99.52 0 1 1 96-99.52 98.56 98.56 0 0 1-96 99.52z m0-134.72a35.52 35.52 0 1 0 32 35.2 34.24 34.24 0 0 0-32-35.2zM296.96 540.8a99.2 99.2 0 0 1 0-198.4 99.2 99.2 0 0 1 0 198.4z m0-134.4a35.2 35.2 0 0 0 0 70.4 35.2 35.2 0 0 0 0-70.4z"  horiz-adv-x="1024" />
      
      <glyph glyph-name="cart" unicode="&#59432;" d="M953.6 676.16a32 32 0 0 1-25.6 12.48H266.24V672l-16 112.32a32 32 0 0 1-32 27.52H64v-64h128l72-505.6a32 32 0 0 1 32-27.52H809.6a32 32 0 0 1 32 23.04L960 648a32 32 0 0 1-6.4 28.16z m-168-398.72H322.24L272.64 624.64h612.8zM341.12 48m-80 0a80 80 0 1 1 160 0 80 80 0 1 1-160 0ZM746.88 48m-80 0a80 80 0 1 1 160 0 80 80 0 1 1-160 0Z"  horiz-adv-x="1024" />
      
      <glyph glyph-name="phone-mobile" unicode="&#59688;" d="M800 832H224a32 32 0 0 1-32-32v-832a32 32 0 0 1 32-32h576a32 32 0 0 1 32 32V800a32 32 0 0 1-32 32z m-32-832H256V768h512zM512 112m-48 0a48 48 0 1 1 96 0 48 48 0 1 1-96 0Z"  horiz-adv-x="1024" />
      
      <glyph glyph-name="cart-minus" unicode="&#59433;" d="M890.56 665.6l-111.68-388.16H315.52L243.84 783.04a32 32 0 0 1-32 27.52H57.6v-64h128L256 240.96a32 32 0 0 1 32-27.52h515.2a32 32 0 0 1 32 23.04l116.8 411.52zM334.72 48m-80 0a80 80 0 1 1 160 0 80 80 0 1 1-160 0ZM740.48 48m-80 0a80 80 0 1 1 160 0 80 80 0 1 1-160 0ZM361.6 600h384v-64h-384z"  horiz-adv-x="1024" />
      
      <glyph glyph-name="minus-2" unicode="&#59689;" d="M64 416h896v-64H64z"  horiz-adv-x="1024" />
      
      <glyph glyph-name="camera-off" unicode="&#59434;" d="M924.48 636.48h-40.32l-64-64h72.32v-480H340.16l-64-64h648.32a32 32 0 0 1 32 32v544a32 32 0 0 1-32 32zM508.48 220.48a117.12 117.12 0 0 0-35.2 5.12l-49.28-49.28a186.56 186.56 0 0 1 84.48-19.84 192 192 0 0 1 192 192 186.56 186.56 0 0 1-19.84 84.48L631.36 384a117.12 117.12 0 0 0 5.12-35.2 128 128 0 0 0-128-128.32zM453.76 288l167.68 168 257.92 257.92-45.44 45.44-94.08-94.08-3.84 4.8-17.28 27.84-17.6 27.52-35.2 56.32a32 32 0 0 1-25.92 14.72h-264.64a32 32 0 0 1-27.2-15.04L256 636.48H92.48a32 32 0 0 1-32-32v-544a29.76 29.76 0 0 1 4.8-16.64 32 32 0 0 1 27.2-15.36h10.56l-20.48-20.48L128-37.44 453.44 288z m-61.12 30.08l-6.4-6.4-2.24 6.08a122.56 122.56 0 0 0-3.84 32v11.2a128 128 0 0 0 116.16 116.16h11.2a122.56 122.56 0 0 0 32-3.84l6.08-1.92z m-160-160l-65.6-65.6H124.48v480h150.08a32 32 0 0 1 27.2 15.04l91.2 144.96h228.16l34.24-53.44 17.28-27.84 17.6-27.52 3.2-4.8-10.24-10.88-61.76-61.76-27.2-27.2-5.12 2.88a171.52 171.52 0 0 1-32 11.84 158.08 158.08 0 0 1-39.36 5.76h-8a192 192 0 0 1-192-192 64 64 0 0 1 0-8 158.08 158.08 0 0 1 5.76-39.36 171.52 171.52 0 0 1 11.84-32l2.88-5.12-60.16-59.52z"  horiz-adv-x="1024" />
      
      <glyph glyph-name="phone-off" unicode="&#59690;" d="M889.92 210.56l-147.2 148.16a32 32 0 0 1-22.4 9.6 32 32 0 0 1-22.72-9.28l-93.44-93.44a451.2 451.2 0 0 0-53.76 33.6l-46.08-46.08a470.08 470.08 0 0 1 94.08-56 32 32 0 0 1 34.56 7.04l87.36 86.72 102.08-103.04L704 67.2a818.88 818.88 0 0 0-265.28 121.28l-45.12-45.76A857.92 857.92 0 0 1 709.44 0h5.76a32 32 0 0 1 22.72 9.6l152.32 156.16a32 32 0 0 1-0.32 44.8zM500.8 339.84L873.92 713.28 828.8 758.72 456.64 386.88a311.36 311.36 0 0 0-19.52 25.28 270.72 270.72 0 0 0-17.92 27.52c-6.4 9.92-12.48 20.16-17.92 32 24 24.96 68.16 68.16 86.4 86.72a32 32 0 0 1 0 45.12L336.32 758.4a32 32 0 0 1-45.12 0L141.44 615.04a32 32 0 0 1-9.6-28.8 859.84 859.84 0 0 1 128-305.6l18.88-25.92c6.72-8.32 13.44-16.32 20.8-24.64L124.8 54.72l45.12-45.44 174.4 174.4 45.76 45.44 64 64z m-155.52-64a242.24 242.24 0 0 0-19.52 25.28 288 288 0 0 0-19.2 26.24A824 824 0 0 0 198.4 581.12l114.24 109.76 107.84-110.4c-27.52-27.2-70.08-70.08-81.92-82.88a32 32 0 0 1-4.8-34.56 457.28 457.28 0 0 1 39.04-70.08 259.52 259.52 0 0 1 18.24-26.56c6.72-8.96 13.44-17.28 19.84-25.28z"  horiz-adv-x="1024" />
      
      <glyph glyph-name="cart-Fill" unicode="&#59435;" d="M942.4 664.32a48.32 48.32 0 0 1-38.4 19.2H279.04l-10.88 76.16A47.36 47.36 0 0 1 220.8 800H72v-96H179.2l66.88-471.36A48.32 48.32 0 0 1 293.76 192h496.32a47.68 47.68 0 0 1 46.08 34.56l113.92 395.84a47.68 47.68 0 0 1-7.68 41.92zM341.44 124.48a78.72 78.72 0 1 1 78.72-78.72 78.72 78.72 0 0 1-78.72 78.72zM747.2 124.48a78.72 78.72 0 1 1 78.4-78.72 78.72 78.72 0 0 1-78.4 78.72z"  horiz-adv-x="1024" />
      
      <glyph glyph-name="phone-off-Fill" unicode="&#59691;" d="M471.68 314.24L832 672l-46.72 46.72-357.44-357.44c-6.72 8-13.44 16.32-19.84 25.28a262.08 262.08 0 0 0-18.56 26.56 518.08 518.08 0 0 0-37.76 64 39.36 39.36 0 0 0 7.04 45.12c20.8 22.08 52.48 54.08 75.2 77.12a40 40 0 0 1 0 55.36l-128 134.72a37.76 37.76 0 0 1-52.16 2.88l-118.4-98.56a38.72 38.72 0 0 1-13.76-36.16 868.16 868.16 0 0 1 147.84-364.48c6.08-8.64 12.8-16.96 19.84-25.28a288 288 0 0 1 20.8-24.32l-32-32L96 32l45.44-45.44 212.8 212.8zM909.76 181.44l-120 123.2a38.4 38.4 0 0 1-54.72 0l-82.56-84.16a38.08 38.08 0 0 0-45.44-7.04 569.28 569.28 0 0 0-87.36 58.56l-116.16-116.16A1068.48 1068.48 0 0 1 736-29.44a38.08 38.08 0 0 1 37.12 10.56l138.24 144.96a40 40 0 0 1-1.6 55.36z"  horiz-adv-x="1024" />
      
      <glyph glyph-name="card-Fill" unicode="&#59436;" d="M960 531.52V688A48 48 0 0 1 912 736h-800A48 48 0 0 1 64 688v-156.48zM64 467.52V80A48 48 0 0 1 112 32h800a48 48 0 0 1 48 48V467.52zM832 192h-256v96h256z"  horiz-adv-x="1024" />
      
      <glyph glyph-name="pet" unicode="&#59692;" d="M376.64 473.6a98.24 98.24 0 0 1 21.44 2.56 105.6 105.6 0 0 1 71.36 69.76 188.8 188.8 0 0 1 3.52 109.44c-20.8 85.12-86.4 139.84-149.44 124.16s-96-94.08-74.88-179.2c18.56-75.2 71.36-126.72 128-126.72z m-37.76 243.84h6.08c23.36 0 54.08-29.44 65.92-77.76a128 128 0 0 0-1.6-72.64c-3.52-9.28-11.52-25.6-26.24-29.12-23.68-6.08-59.2 24.32-72.32 77.12s4.48 96.64 28.16 102.4zM249.6 302.4c48 24.32 60.16 93.12 28.16 156.8s-96 96-143.36 70.4-60.16-93.12-28.16-156.8a130.88 130.88 0 0 1 108.16-78.72 75.84 75.84 0 0 1 35.2 8.32z m-86.08 99.2c-17.6 34.56-11.84 64 0 71.04a16.96 16.96 0 0 0 6.08 0 69.76 69.76 0 0 0 50.88-43.52c17.6-34.56 11.84-64 0-71.04s-39.68 8.96-56.96 43.52zM618.56 472.32a96 96 0 0 1 21.44-2.56 112.32 112.32 0 0 1 73.92 32 190.08 190.08 0 0 1 54.08 96 190.08 190.08 0 0 1-3.52 109.76 105.92 105.92 0 0 1-71.04 69.44 105.6 105.6 0 0 1-96-28.48 190.08 190.08 0 0 1-54.08-96 190.08 190.08 0 0 1 3.52-109.76 105.92 105.92 0 0 1 71.68-70.4z m-12.48 163.84a128 128 0 0 0 35.2 64 49.6 49.6 0 0 0 32 14.4h6.08a45.44 45.44 0 0 0 26.24-29.44 128 128 0 0 0 0-72.32 128 128 0 0 0-35.2-64 44.48 44.48 0 0 0-36.8-13.76 45.44 45.44 0 0 0-26.24 29.44 128 128 0 0 0-1.28 71.68zM889.6 529.6c-48 24.32-111.04-6.4-143.36-70.4s-19.84-132.48 28.16-156.8a75.84 75.84 0 0 1 35.2-8.32 130.88 130.88 0 0 1 108.16 78.72c32 63.68 19.84 132.48-28.16 156.8z m-29.12-128c-17.28-34.56-45.44-48.32-56.96-42.24s-17.6 36.48 0 71.04 45.44 48 56.96 42.24 17.6-36.48 0-71.04zM664 291.84A179.2 179.2 0 0 1 512 400a178.24 178.24 0 0 1-152.64-112c-113.6-32-183.36-93.76-183.36-167.36a128 128 0 0 1 34.56-84.16C262.4-19.52 363.52-48 512-48s248 28.48 297.6 83.2a136.96 136.96 0 0 1 10.56 12.48 123.52 123.52 0 0 1 26.24 74.24c0 77.76-69.44 142.08-182.4 169.92zM768 85.44a11.2 11.2 0 0 0-1.6-2.56l-3.2-3.52c-36.8-40.96-126.08-64-251.2-64s-213.76 22.08-252.48 64a64 64 0 0 0-18.56 41.92c0 44.48 60.8 88.32 151.04 109.12a32 32 0 0 1 24 23.36 115.52 115.52 0 0 0 96 81.6A117.12 117.12 0 0 0 608 256a32 32 0 0 1 24.32-23.04c91.84-18.88 148.8-61.76 148.8-111.36a58.88 58.88 0 0 0-13.12-36.16z"  horiz-adv-x="1024" />
      
      <glyph glyph-name="cart-add" unicode="&#59437;" d="M890.56 665.6l-111.68-388.16H315.52L243.84 783.04a32 32 0 0 1-32 27.52H57.6v-64h128L256 240.96a32 32 0 0 1 32-27.52h515.2a32 32 0 0 1 32 23.04l116.8 411.52zM334.72 48m-80 0a80 80 0 1 1 160 0 80 80 0 1 1-160 0ZM740.48 48m-80 0a80 80 0 1 1 160 0 80 80 0 1 1-160 0ZM521.6 394.56h64v141.44h160v64h-160V778.56h-64v-178.56h-160v-64h160v-141.44z"  horiz-adv-x="1024" />
      
      <glyph glyph-name="Pinterest" unicode="&#59693;" d="M512 800a416 416 0 0 1-151.36-803.52 643.2 643.2 0 0 0 0 103.36c3.84 33.6 48.32 200.64 53.12 224-40 131.2 27.84 158.08 62.08 160s51.84-24.32 50.24-66.88-46.4-110.72-37.12-150.4a64 64 0 0 1 65.92-56c88 3.84 128 100.48 131.84 183.04a165.12 165.12 0 0 1-168.96 181.12c-181.12-2.88-192-141.12-194.24-182.08a196.16 196.16 0 0 1 32-100.16c6.4-10.24-8.64-48.32-8.64-48.32s-3.52-13.12-12.8-9.28c-28.8 10.24-81.6 53.76-85.44 160C256 647.68 512 644.16 512 644.16c173.76 8 269.44-107.84 264.64-241.6-4.8-295.36-279.36-284.16-311.04-204.16a1012.8 1012.8 0 0 0-29.76-117.12 802.88 802.88 0 0 0-47.36-93.12h-2.24A408.64 408.64 0 0 1 512-32a416 416 0 0 1 0 832z"  horiz-adv-x="1024" />
      
      <glyph glyph-name="certificate-Fill" unicode="&#59438;" d="M864 816H160A48 48 0 0 1 112 768v-768A48 48 0 0 1 160-48h704a48 48 0 0 1 48 48V768A48 48 0 0 1 864 816zM348.8 694.08h64v-285.76l81.6 58.24a32 32 0 0 0 37.44 0l78.4-56.32V694.08h64v-345.92a32 32 0 0 0-17.28-28.48 32 32 0 0 0-32 2.24L512 401.28 399.68 320a33.92 33.92 0 0 0-18.88-6.08 32 32 0 0 0-14.4 3.52 32 32 0 0 0-17.6 28.48zM688 48h-352v64h352z m0 140.8h-352v64h352z"  horiz-adv-x="1024" />
      
      <glyph glyph-name="percent-Fill" unicode="&#59694;" d="M113.92 33.184L860.672 779.904l45.248-45.248L159.2-12.064zM750.08 160m-128 0a128 128 0 1 1 256 0 128 128 0 1 1-256 0ZM302.08 608m-128 0a128 128 0 1 1 256 0 128 128 0 1 1-256 0Z"  horiz-adv-x="1024" />
      
      <glyph glyph-name="cart-minus-Fill" unicode="&#59439;" d="M341.44 124.48a78.72 78.72 0 1 1 78.72-78.72 78.72 78.72 0 0 1-78.72 78.72zM747.2 124.48a78.72 78.72 0 1 1 78.4-78.72 78.72 78.72 0 0 1-78.4 78.72zM942.4 664.32a47.68 47.68 0 0 1-38.4 19.2H279.04l-10.88 76.16A47.36 47.36 0 0 1 220.8 800H72v-96H179.2l66.88-471.36A48.32 48.32 0 0 1 293.76 192h496.32a47.68 47.68 0 0 1 46.08 34.56l113.92 395.84a47.68 47.68 0 0 1-7.68 41.92zM704 416H384v64h320z"  horiz-adv-x="1024" />
      
      <glyph glyph-name="panorama-Fill" unicode="&#59695;" d="M675.84 490.56a28.8 28.8 0 0 1-26.24-16.64 99.2 99.2 0 0 1-9.6-46.72v-93.44a93.76 93.76 0 0 1 9.6-47.04 28.8 28.8 0 0 1 52.16 0 97.92 97.92 0 0 1 9.28 47.04v93.44a96 96 0 0 1-9.6 46.72 28.8 28.8 0 0 1-25.6 16.64zM460.8 381.44a55.36 55.36 0 0 1-24-4.8 42.24 42.24 0 0 1-16-13.76v-18.88A112.64 112.64 0 0 1 432 288a32 32 0 0 1 29.44-19.2 27.84 27.84 0 0 1 25.28 16 76.48 76.48 0 0 1 9.6 40 74.24 74.24 0 0 1-9.6 40.64 29.44 29.44 0 0 1-25.92 16zM960 769.92l-64-20.48a1393.92 1393.92 0 0 0-384-53.44A1393.92 1393.92 0 0 0 128 749.44l-64 20.48v-771.84l64 20.16a1381.44 1381.44 0 0 0 384 53.76 1390.08 1390.08 0 0 0 384-53.76l64-20.16zM312 247.68a110.08 110.08 0 0 0-72.64-23.68 107.84 107.84 0 0 0-67.52 22.4 74.24 74.24 0 0 0-27.84 64h59.2a44.8 44.8 0 0 1 10.24-29.76 32 32 0 0 1 25.92-11.84 37.12 37.12 0 0 1 29.44 12.16 44.8 44.8 0 0 1 11.52 32 52.48 52.48 0 0 1-10.88 36.16 38.4 38.4 0 0 1-32 11.52h-32V406.4h32a32 32 0 0 1 27.52 11.52 50.24 50.24 0 0 1 9.28 32 43.52 43.52 0 0 1-9.92 28.8 32 32 0 0 1-49.6 0 36.8 36.8 0 0 1-9.28-26.56H148.16A70.72 70.72 0 0 0 173.44 512a98.24 98.24 0 0 0 66.24 23.04 104.32 104.32 0 0 0 70.4-22.4 78.4 78.4 0 0 0 26.56-64 70.4 70.4 0 0 0-11.52-38.4 79.36 79.36 0 0 0-32-27.52 73.28 73.28 0 0 0 34.56-27.2 79.68 79.68 0 0 0 12.16-44.48 80.64 80.64 0 0 0-27.84-63.36z m220.16 4.8a91.2 91.2 0 0 0-69.12-28.48 91.84 91.84 0 0 0-72.64 32 131.84 131.84 0 0 0-27.84 88.64v64a129.6 129.6 0 0 0 32 91.84 105.28 105.28 0 0 0 81.28 34.24 125.76 125.76 0 0 0 30.08-3.2 166.08 166.08 0 0 0 27.52-9.6L522.88 480a171.52 171.52 0 0 1-23.04 7.36 105.6 105.6 0 0 1-24 2.24 45.76 45.76 0 0 1-38.4-20.16 96 96 0 0 1-14.72-57.6v-9.28a75.2 75.2 0 0 0 26.24 17.92 88.32 88.32 0 0 0 34.24 6.08 64 64 0 0 0 55.68-27.52 123.84 123.84 0 0 0 19.84-72.96 104.32 104.32 0 0 0-26.56-73.6z m241.28 86.08a126.08 126.08 0 0 0-26.24-84.16 87.36 87.36 0 0 0-69.12-30.4 88.64 88.64 0 0 0-70.08 30.4 124.48 124.48 0 0 0-26.24 84.16v83.2a125.12 125.12 0 0 0 26.24 84.16 93.76 93.76 0 0 0 138.88 0 125.12 125.12 0 0 0 26.56-84.16zM896 439.68a50.24 50.24 0 0 0-74.24 0 55.36 55.36 0 0 0-15.04 40.32 56.64 56.64 0 0 0 15.68 40.32 49.6 49.6 0 0 0 74.24 0A57.6 57.6 0 0 0 912 480a56.32 56.32 0 0 0-16-40.32zM857.92 507.52a22.4 22.4 0 0 1-16.64-8 29.76 29.76 0 0 1-6.72-19.84 28.16 28.16 0 0 1 6.72-19.2 22.08 22.08 0 0 1 16.64-7.68 20.8 20.8 0 0 1 16.32 7.68 28.16 28.16 0 0 1 6.72 19.2 29.76 29.76 0 0 1-6.72 19.84 21.12 21.12 0 0 1-16.32 8z"  horiz-adv-x="1024" />
      
      <glyph glyph-name="circle-down-Fill" unicode="&#59440;" d="M960 384a448 448 0 1 1-448-448 448 448 0 0 1 448 448z m-470.72-135.68l-203.52 203.52 45.44 45.12L512 316.16l180.8 180.8 45.44-45.12-203.52-203.52a32 32 0 0 0-45.44 0z"  horiz-adv-x="1024" />
      
      <glyph glyph-name="play-Fill" unicode="&#59696;" d="M432 264.96L626.56 384l-194.56 119.04v-238.08zM512 832a448 448 0 1 1 448-448A448 448 0 0 1 512 832z m192-475.2l-288-176a32 32 0 0 0-16.64-4.8 32 32 0 0 0-15.68 4.16 32 32 0 0 0-16.32 27.84v352a32 32 0 0 0 16.64 27.84 32 32 0 0 0 32 0l288-176a32 32 0 0 0 0-54.4z"  horiz-adv-x="1024" />
      
      <glyph glyph-name="cart-right" unicode="&#59441;" d="M847.36 726.4l-43.52 46.72-260.8-245.12-144.64 122.24-41.6-48.96 188.48-159.04 302.08 284.16zM890.56 665.6l-111.68-388.16H315.52L243.84 783.04a32 32 0 0 1-32 27.52H57.6v-64h128L256 240.96a32 32 0 0 1 32-27.52h515.2a32 32 0 0 1 32 23.04l116.8 411.52zM334.72 48m-80 0a80 80 0 1 1 160 0 80 80 0 1 1-160 0ZM740.48 48m-80 0a80 80 0 1 1 160 0 80 80 0 1 1-160 0Z"  horiz-adv-x="1024" />
      
      <glyph glyph-name="plug-Fill" unicode="&#59697;" d="M683.84 648v160h-96v-160h-158.4v160h-96v-160H166.72v-160h690.56v160h-173.44zM166.72 268.48v-6.08c6.4-49.28 45.76-142.72 149.44-142.72h145.92v-160h345.6v96h-249.28v64h155.2l6.4 1.92c51.2 14.4 137.28 61.44 137.28 147.2v155.2H166.72zM512 352a64 64 0 1 0-64-64 64 64 0 0 0 64 64z"  horiz-adv-x="1024" />
      
      <glyph glyph-name="chart-pie-Fill" unicode="&#59442;" d="M776 192l-254.08 202.88V729.28a48 48 0 0 1-48 48A400 400 0 0 1 80 372.8 400 400 0 0 1 474.56-32a388.8 388.8 0 0 1 312 157.12 48 48 0 0 1-3.52 61.76zM642.56 800a48.32 48.32 0 0 1-57.28-32 41.92 41.92 0 0 1-2.24-14.08c0-14.72-7.68-182.72-12.48-294.08a47.68 47.68 0 0 1 18.56-40l124.16-96c110.4-86.08 138.56-107.84 156.8-107.84a40.96 40.96 0 0 1 18.24 6.08 46.4 46.4 0 0 1 23.04 24.32 408 408 0 0 1 32 160A401.92 401.92 0 0 1 642.56 800z"  horiz-adv-x="1024" />
      
      <glyph glyph-name="play" unicode="&#59698;" d="M512 832a448 448 0 1 1 448-448A448 448 0 0 1 512 832z m0-832a384 384 0 1 0 384 384 384 384 0 0 0-384-384zM720.64 411.2l-288 176a32 32 0 0 1-32 0 32 32 0 0 1-16.32-27.84v-352a32 32 0 0 1 16.32-27.84 32 32 0 0 1 15.68-4.16 32 32 0 0 1 16.64 4.8l288 176a32 32 0 0 1 0 54.4zM448 264.96v238.08L642.56 384z"  horiz-adv-x="1024" />
      
      <glyph glyph-name="chat-smile" unicode="&#59443;" d="M820.48 835.52H203.52A75.52 75.52 0 0 1 128 760v-616.64a75.84 75.84 0 0 1 75.52-75.84h455.36l186.88-129.6a33.92 33.92 0 0 1 18.24-5.44 29.44 29.44 0 0 1 14.72 3.52 32 32 0 0 1 17.28 28.48V760a75.52 75.52 0 0 1-75.52 75.52zM832 25.6l-144.96 100.48a33.92 33.92 0 0 1-18.24 5.44H203.52a11.84 11.84 0 0 0-11.52 11.84V760a11.52 11.52 0 0 0 11.52 11.52h616.96a11.52 11.52 0 0 0 11.52-11.52zM512 279.36a293.12 293.12 0 0 0-214.4 84.8l-48.64-41.28A354.56 354.56 0 0 1 512 215.36a354.88 354.88 0 0 1 264.64 107.52l-48.96 41.28A292.16 292.16 0 0 0 512 279.36z"  horiz-adv-x="1024" />
      
      <glyph glyph-name="printer" unicode="&#59699;" d="M928 587.52h-173.76V800H269.76v-211.2H96a32 32 0 0 1-32-32v-464.32a32 32 0 0 1 32-32h128V-32h576v92.48h128a32 32 0 0 1 32 32V555.52a32 32 0 0 1-32 32zM333.76 736h356.48v-147.2H333.76zM736 32H288v128h448z m160 91.2h-96V224H224v-100.8H128V523.52h768zM224 433.28h192v-64H224z"  horiz-adv-x="1024" />
      
      <glyph glyph-name="circle-left-Fill" unicode="&#59444;" d="M512-64A448 448 0 1 1 64 384a448 448 0 0 1 448-448z m-135.68 470.72l203.52 203.52 45.12-45.44L444.16 384l180.8-180.8-45.12-45.44-203.52 203.52a32 32 0 0 0 0 45.44z"  horiz-adv-x="1024" />
      
      <glyph glyph-name="plug" unicode="&#59700;" d="M726.4 108.48h4.16C736 111.36 864 148.48 864 249.92V640h-186.88V832h-64v-192h-209.6V832h-64v-192H160v-394.88c6.08-47.04 43.2-136.64 141.12-136.64h176.64V-64h352v64h-288v108.48zM800 576v-73.6H224V576zM224 251.52v186.24h576v-187.84c0-46.08-66.56-71.68-82.88-77.44h-416c-61.12 0-74.88 65.6-77.12 79.04zM456.64 302.08a55.36 54.72 0 1 1 110.72 0 55.36 54.72 0 1 1-110.72 0Z"  horiz-adv-x="1024" />
      
      <glyph glyph-name="certificate" unicode="&#59445;" d="M864 832H160a32 32 0 0 1-32-32v-832a32 32 0 0 1 32-32h704a32 32 0 0 1 32 32V800a32 32 0 0 1-32 32zM412.8 768h197.44v-261.76l-78.4 56.32a32 32 0 0 1-37.44 0l-81.6-58.24zM832 0H192V768h156.8v-326.08a32 32 0 0 1 17.6-28.48 32 32 0 0 1 14.4-3.52 33.92 33.92 0 0 1 18.88 6.08L512 497.28l110.72-79.36a32 32 0 0 1 32-2.24 32 32 0 0 1 17.28 28.48V768h160zM320 316.8h384v-64H320zM320 192h384v-64H320z"  horiz-adv-x="1024" />
      
      <glyph glyph-name="phone-mobile-Fill" unicode="&#59701;" d="M176 128v-144A48 48 0 0 1 224-64h576a48 48 0 0 1 48 48V128zM848 192V784A48 48 0 0 1 800 832H224a48 48 0 0 1-48-48V192zM512 746.56a53.44 53.44 0 1 0-53.44-53.12A53.12 53.12 0 0 0 512 746.56z"  horiz-adv-x="1024" />
      
      <glyph glyph-name="circle-minus-Fill" unicode="&#59446;" d="M512 832a448 448 0 1 1 448-448A448 448 0 0 1 512 832z m192-480H320v64h384z"  horiz-adv-x="1024" />
      
      <glyph glyph-name="product-add-Fill" unicode="&#59702;" d="M813.76 780.8a51.52 51.52 0 0 1-40.32 19.2H250.56a51.52 51.52 0 0 1-40.32-19.2L96 568.96h832zM96 16A48 48 0 0 1 144-32h736a48 48 0 0 1 48 48V512H96z m256 256h128v128h64v-128h128v-64h-128v-128h-64v128h-128z"  horiz-adv-x="1024" />
      
      <glyph glyph-name="chat-smile-Fill" unicode="&#59447;" d="M820.48 835.52H203.52A75.52 75.52 0 0 1 128 760v-616.64a75.84 75.84 0 0 1 75.52-75.84h455.36l186.88-129.6a33.92 33.92 0 0 1 18.24-5.44 29.44 29.44 0 0 1 14.72 3.52 32 32 0 0 1 17.28 28.48V760a75.52 75.52 0 0 1-75.52 75.52zM512 215.36a354.56 354.56 0 0 0-264.32 107.52l49.92 41.28a293.12 293.12 0 0 1 214.4-84.8 292.16 292.16 0 0 1 215.68 84.8l48.96-41.28A354.88 354.88 0 0 0 512 215.36z"  horiz-adv-x="1024" />
      
      <glyph glyph-name="phone-video-Fill" unicode="&#59703;" d="M790.08 304.64a38.72 38.72 0 0 1-55.04 0l-82.56-84.16a38.08 38.08 0 0 0-45.44-7.04 622.72 622.72 0 0 0-256 263.68 39.36 39.36 0 0 0 7.04 45.12c20.8 22.08 52.48 54.08 75.2 77.12a40 40 0 0 1 0 55.36l-128 134.72a37.76 37.76 0 0 1-52.16 2.88L135.36 693.76a38.72 38.72 0 0 1-13.76-36.16c11.2-73.6 57.28-280 202.88-429.76a1090.88 1090.88 0 0 1 410.24-256 38.08 38.08 0 0 1 37.12 10.56l138.24 144.96a40 40 0 0 1 0 55.36zM806.4 694.72V768h-259.52v-209.6h259.52V630.4l121.6-65.92V755.84l-121.6-61.12z"  horiz-adv-x="1024" />
      
      <glyph glyph-name="circle-left" unicode="&#59448;" d="M512 832a448 448 0 1 1 448-448A448 448 0 0 1 512 832z m0-832a384 384 0 1 0 384 384 384 384 0 0 0-384-384zM563.2 603.84l-203.52-203.52a32 32 0 0 1 0-45.44l203.52-203.52 44.8 45.44-180.48 180.8L608 558.4z"  horiz-adv-x="1024" />
      
      <glyph glyph-name="product" unicode="&#59704;" d="M960 592.32a32 32 0 0 1-2.24 10.88 9.6 9.6 0 0 1 0 2.56 11.52 11.52 0 0 1 0 2.88l-128 208A32 32 0 0 1 800 832H224a32 32 0 0 1-27.52-15.36L68.8 608a11.52 11.52 0 0 1 0-2.88v-2.56a32 32 0 0 1-4.8-10.24V-32a32 32 0 0 1 32-32h832a32 32 0 0 1 32 32V592zM240.64 768h544l87.68-144H152.96zM896 0H128V560h768zM256 384h256v-64H256zM256 224h384v-64H256z"  horiz-adv-x="1024" />
      
      <glyph glyph-name="card-sim-Fill" unicode="&#59449;" d="M384 240h288V32h-288zM912 736H320a48.64 48.64 0 0 1-39.04-19.84l-208-288a48.96 48.96 0 0 1-8.96-28.16v-320A48 48 0 0 1 112 32H288v304h480V32h144a48 48 0 0 1 48 48v608A48 48 0 0 1 912 736zM512 484.8h-96v176h96z m149.44 0h-96v176h96z m149.12 0h-96v176h96z"  horiz-adv-x="1024" />
      
      <glyph glyph-name="phone-video" unicode="&#59705;" d="M950.72 175.04l-173.76 175.04a32 32 0 0 1-22.72 9.6 32 32 0 0 1-22.72-9.28l-113.6-113.6a592 592 0 0 0-247.68 250.56c27.52 28.48 82.24 82.88 105.28 105.28a32 32 0 0 1 0 45.12L296.32 822.4a32 32 0 0 1-45.12 0L73.92 652.8a32 32 0 0 1-9.92-28.8c1.92-11.2 50.24-272.96 229.12-452.8s437.44-232.32 448-234.56h6.08a32 32 0 0 1 23.04 9.6l179.84 184.64a32 32 0 0 1 0.64 44.16z m-212.8-171.84c-58.24 14.4-258.24 71.68-398.72 213.12S144.32 560.32 130.88 618.88l141.76 136 135.36-138.88c-32-32-86.72-86.08-100.16-101.44A32 32 0 0 1 302.72 480a637.12 637.12 0 0 1 309.76-311.36 32 32 0 0 1 34.56 7.04l106.88 106.56 128-129.92zM821.76 544h48V581.76l16-3.52 58.24-12.8v192l-56.32-9.92-17.92-3.2V784H592V544h229.76zM640 736h181.76v-50.24L896 698.88v-73.92L821.76 640v-48H640z"  horiz-adv-x="1024" />
      
      <glyph glyph-name="check" unicode="&#59450;" d="M393.28 82.88L65.28 410.24l45.44 45.44 282.56-282.56L913.28 693.44l45.12-45.12-565.12-565.44z"  horiz-adv-x="1024" />
      
      <glyph glyph-name="magnifier" unicode="&#59706;" d="M950.72-18.24L741.76 192a384 384 0 1 1-46.72-43.84L905.6-64z m-720 239.68a320 320 0 1 0 452.48 0 320 320 0 0 0-452.48 0z"  horiz-adv-x="1024" />
      
      <glyph glyph-name="circle-minus" unicode="&#59451;" d="M512 832a448 448 0 1 1 448-448A448 448 0 0 1 512 832z m0-832a384 384 0 1 0 384 384 384 384 0 0 0-384-384zM288 416h448v-64H288z"  horiz-adv-x="1024" />
      
      <glyph glyph-name="product-Fill" unicode="&#59707;" d="M813.76 780.8a51.52 51.52 0 0 1-40.32 19.2H250.56a51.52 51.52 0 0 1-40.32-19.2L96 568.96h832zM96 16A48 48 0 0 1 144-32h736a48 48 0 0 1 48 48V512H96z m192 352h256v-64H288z m0-128h384v-64H288z"  horiz-adv-x="1024" />
      
      <glyph glyph-name="circle-right" unicode="&#59452;" d="M512 832a448 448 0 1 1 448-448A448 448 0 0 1 512 832z m0-832a384 384 0 1 0 384 384 384 384 0 0 0-384-384zM448 604.16l-44.8-45.12 180.8-180.8-180.8-181.12 44.8-45.12 203.52 203.52a32 32 0 0 1 9.6 22.72 32 32 0 0 1-9.6 22.4z"  horiz-adv-x="1024" />
      
      <glyph glyph-name="product-caution-Fill" unicode="&#59708;" d="M813.76 780.8a51.52 51.52 0 0 1-40.32 19.2H250.56a51.52 51.52 0 0 1-40.32-19.2L96 568.96h832zM96 16A48 48 0 0 1 144-32h736a48 48 0 0 1 48 48V512H96z m366.08 416h96v-192h-96z m49.92-256a64 64 0 1 0-64-64 64 64 0 0 0 64 64z"  horiz-adv-x="1024" />
      
      <glyph glyph-name="circle-up-Fill" unicode="&#59453;" d="M64 384A448 448 0 1 1 512 832 448 448 0 0 1 64 384z m470.72 135.68l203.52-203.52-45.44-45.12L512 451.84l-180.8-180.8-45.44 45.12 203.52 203.52a32 32 0 0 0 45.44 0z"  horiz-adv-x="1024" />
      
      <glyph glyph-name="product-group-Fill" unicode="&#59709;" d="M704 800H320a32 32 0 0 1-32-32v-320a32 32 0 0 1 32-32h384a32 32 0 0 1 32 32V768a32 32 0 0 1-32 32z m-192-192h-128V672h128zM448 352H96a32 32 0 0 1-32-32v-320a32 32 0 0 1 32-32h352a32 32 0 0 1 32 32V320a32 32 0 0 1-32 32z m-160-192H160v64h128zM928 352H576a32 32 0 0 1-32-32v-320a32 32 0 0 1 32-32h352a32 32 0 0 1 32 32V320a32 32 0 0 1-32 32z m-160-192h-128v64h128z"  horiz-adv-x="1024" />
      
      <glyph glyph-name="close" unicode="&#59454;" d="M886.72 713.28l-45.44 45.44L512 429.12 182.72 758.72 137.28 713.28 466.88 384 137.28 54.72l45.44-45.44L512 338.88l329.28-329.6 45.44 45.44L557.12 384l329.6 329.28z"  horiz-adv-x="1024" />
      
      <glyph glyph-name="product-add" unicode="&#59710;" d="M960 592.64a32 32 0 0 1-2.24 10.88 9.6 9.6 0 0 1 0 2.56 11.52 11.52 0 0 1 0 2.88l-128 208A32 32 0 0 1 800 832H224a32 32 0 0 1-27.52-15.36L68.8 608a11.52 11.52 0 0 1 0-2.88 9.6 9.6 0 0 1 0-2.56 32 32 0 0 1-4.8-9.92V-32a32 32 0 0 1 32-32h832a32 32 0 0 1 32 32V592.32zM240.64 768h544l87.68-144H152.96zM896 0H128V560.32h768zM480 96.32h64v160h160v64h-160v160h-64v-160h-160v-64h160v-160z"  horiz-adv-x="1024" />
      
      <glyph glyph-name="cart-right-Fill" unicode="&#59455;" d="M341.44 124.48a78.72 78.72 0 1 1 78.72-78.72 78.72 78.72 0 0 1-78.72 78.72zM747.2 124.48a78.72 78.72 0 1 1 78.4-78.72 78.72 78.72 0 0 1-78.4 78.72zM942.4 664.32a47.68 47.68 0 0 1-38.4 19.2H279.04l-10.88 76.16A47.36 47.36 0 0 1 220.8 800H72v-96H179.2l66.88-471.36A48.32 48.32 0 0 1 293.76 192h496.32a47.68 47.68 0 0 1 46.08 34.56l113.92 395.84a47.68 47.68 0 0 1-7.68 41.92zM532.48 304L384 439.36l40.32 51.52 105.92-96 195.2 198.08L768 544z"  horiz-adv-x="1024" />
      
      <glyph glyph-name="product-minus-Fill" unicode="&#59711;" d="M813.76 780.8a51.52 51.52 0 0 1-40.32 19.2H250.56a51.52 51.52 0 0 1-40.32-19.2L96 568.96h832zM96 16A48 48 0 0 1 144-32h736a48 48 0 0 1 48 48V512H96z m240 240h352v-64h-352z"  horiz-adv-x="1024" />
      
      <glyph glyph-name="circle-right-Fill" unicode="&#59456;" d="M512 832a448 448 0 1 1 448-448A448 448 0 0 1 512 832z m135.68-470.72l-203.52-203.52-45.12 45.44L579.84 384l-180.8 180.8 45.12 45.44 203.52-203.52a32 32 0 0 0 0-45.44z"  horiz-adv-x="1024" />
      
      <glyph glyph-name="product-caution" unicode="&#59712;" d="M960 592.32a32 32 0 0 1-2.24 10.88 9.6 9.6 0 0 1 0 2.56 11.52 11.52 0 0 1 0 2.88l-128 208A32 32 0 0 1 800 832H224a32 32 0 0 1-27.52-15.36L68.8 608a11.52 11.52 0 0 1 0-2.88v-2.56a32 32 0 0 1-4.8-10.24V-32a32 32 0 0 1 32-32h832a32 32 0 0 1 32 32V592zM240.64 768h544l87.68-144H152.96zM896 0H128V560h768zM480 448h64v-224h-64zM512 128m-48 0a48 48 0 1 1 96 0 48 48 0 1 1-96 0Z"  horiz-adv-x="1024" />
      
      <glyph glyph-name="chart-pie" unicode="&#59457;" d="M785.92 168.32c-12.16 8.96-170.56 132.16-283.2 219.52V747.52a32 32 0 0 1-32 32 407.36 407.36 0 1 1 322.24-657.28 32 32 0 0 1-1.92 41.6 34.24 34.24 0 0 1-5.12 4.48z m-314.56-139.52a343.36 343.36 0 0 0-32 685.12v-341.76a32 32 0 0 1 12.48-25.28l148.48-115.2c58.88-46.08 96-75.52 122.56-94.08a341.44 341.44 0 0 0-251.52-108.8zM648.64 802.24a32 32 0 0 1-38.4-21.76 46.4 46.4 0 0 1 0-9.28c0-14.4-9.92-227.84-13.44-310.08a32 32 0 0 1 12.48-27.2l134.72-101.76c116.16-88.64 142.08-108.16 156.16-108.16a24.32 24.32 0 0 1 10.88 3.52 32 32 0 0 1 15.04 15.68 407.68 407.68 0 0 1-277.44 559.04z m232.96-494.72l-221.44 167.36 6.08 139.2c2.24 51.52 3.84 88.64 4.48 114.88a344 344 0 0 0 210.88-421.44z"  horiz-adv-x="1024" />
      
      <glyph glyph-name="product-returns-Fill" unicode="&#59713;" d="M813.76 780.8a51.52 51.52 0 0 1-40.32 19.2H250.56a51.52 51.52 0 0 1-40.32-19.2L96 568.96h832zM96 16A48 48 0 0 1 144-32h736a48 48 0 0 1 48 48V512H96z m284.48 396.48v-48h236.8a124.8 124.8 0 0 0 83.2-128 124.8 124.8 0 0 0-83.2-128h-300.8v64h288a64 64 0 0 1 32 64 64 64 0 0 1-32 64h-224v-48l-96 80z"  horiz-adv-x="1024" />
      
      <glyph glyph-name="circle-down" unicode="&#59458;" d="M512 832a448 448 0 1 1 448-448A448 448 0 0 1 512 832z m0-832a384 384 0 1 0 384 384 384 384 0 0 0-384-384zM500.8 283.2L320 464.32l-45.44-45.44 203.52-203.52a32 32 0 0 1 45.12 0l203.52 203.52-45.12 45.44z"  horiz-adv-x="1024" />
      
      <glyph glyph-name="product-prohibit-Fill" unicode="&#59714;" d="M813.76 780.8a51.52 51.52 0 0 1-40.32 19.2H250.56a51.52 51.52 0 0 1-40.32-19.2L96 568.96h832zM512 117.76a121.28 121.28 0 0 1 106.56 181.12l-165.44-165.44a122.56 122.56 0 0 1 58.88-15.68zM570.88 346.56a121.28 121.28 0 0 1-165.44-165.44zM96 16A48 48 0 0 1 144-32h736a48 48 0 0 1 48 48V512H96z m416 416a192 192 0 1 0-192-192 192 192 0 0 0 192 192z"  horiz-adv-x="1024" />
      
      <glyph glyph-name="cloud-download-Fill" unicode="&#59459;" d="M544.64 288h-65.28v-193.28H352L512-64l160 158.72h-127.36V288zM778.56 515.2v18.56a272 272 0 0 1-269.44 274.24 272 272 0 0 1-269.44-274.24v-24.32A250.88 250.88 0 0 1 64 274.56a256 256 0 0 1 243.52-248.64v-1.92h6.08a224 224 0 1 0 396.8 0h20.48v1.92a249.92 249.92 0 0 1 47.68 489.28z"  horiz-adv-x="1024" />
      
      <glyph glyph-name="product-returns" unicode="&#59715;" d="M960 592.32a32 32 0 0 1-2.24 10.88 9.6 9.6 0 0 1 0 2.56 11.52 11.52 0 0 1 0 2.88l-128 208A32 32 0 0 1 800 832H224a32 32 0 0 1-27.52-15.36L68.8 608a11.52 11.52 0 0 1 0-2.88v-2.56a32 32 0 0 1-4.8-10.24V-32a32 32 0 0 1 32-32h832a32 32 0 0 1 32 32V592zM240.64 768h544l87.68-144H152.96zM896 0H128V560h768zM416 320h224a64 64 0 0 0 32-64c0-45.44-15.36-64-27.52-64H352v-64h292.48c32 0 91.52 26.88 91.52 128a125.44 125.44 0 0 1-83.2 128H416v48L320 352l96-80z"  horiz-adv-x="1024" />
      
      <glyph glyph-name="cloud" unicode="&#59460;" d="M960 272a237.76 237.76 0 0 1-188.8 232.32 262.4 262.4 0 0 1-524.48 0h15.04A241.6 241.6 0 0 1 64 272a245.44 245.44 0 0 1 235.2-236.16h440.64A237.12 237.12 0 0 1 960 272z m-237.12-173.12H320c-105.92 0-192 77.76-192 173.12s86.08 173.44 192 173.44h7.36l2.56 64h-19.2a198.08 198.08 0 0 0 395.84 0 235.84 235.84 0 0 1-166.08-84.16L589.76 384a173.12 173.12 0 1 0 133.12-284.16z"  horiz-adv-x="1024" />
      
      <glyph glyph-name="product-group" unicode="&#59716;" d="M320 416h384a32 32 0 0 1 32 32V768a32 32 0 0 1-32 32H320a32 32 0 0 1-32-32v-320a32 32 0 0 1 32-32z m32 320h320v-256H352zM384 672h128v-64h-128zM448 352H96a32 32 0 0 1-32-32v-320a32 32 0 0 1 32-32h352a32 32 0 0 1 32 32V320a32 32 0 0 1-32 32z m-32-320H128v256h288zM160 224h128v-64H160zM928 352H576a32 32 0 0 1-32-32v-320a32 32 0 0 1 32-32h352a32 32 0 0 1 32 32V320a32 32 0 0 1-32 32z m-32-320h-288v256h288zM640 224h128v-64h-128z"  horiz-adv-x="1024" />
      
      <glyph glyph-name="cloud-faild" unicode="&#59461;" d="M771.2 533.76a262.4 262.4 0 0 1-524.48 0h14.72A241.92 241.92 0 0 1 64 301.44C64 170.56 178.88 64 320 64v64c-106.24 0-192 77.76-192 173.44s86.08 173.12 192 173.12h7.36l2.56 64h-19.2a198.08 198.08 0 0 0 395.84 0 236.16 236.16 0 0 1-166.08-84.48l48.96-40.96A173.12 173.12 0 1 0 728.64 128l2.24-64a237.44 237.44 0 0 1 40.32 469.76zM618.56 263.68l-90.56-90.56-90.56 90.56-45.12-45.12L482.88 128l-90.56-90.56 45.12-45.12 90.56 90.56 90.56-90.56 45.12 45.12L573.12 128l90.56 90.56-45.12 45.12z"  horiz-adv-x="1024" />
      
      <glyph glyph-name="product-prohibit" unicode="&#59717;" d="M960 592.32a32 32 0 0 1-2.24 10.88 9.6 9.6 0 0 1 0 2.56 11.52 11.52 0 0 1 0 2.88l-128 208A32 32 0 0 1 800 832H224a32 32 0 0 1-27.52-15.36L68.8 608a11.52 11.52 0 0 1 0-2.88v-2.56a32 32 0 0 1-4.8-10.24V-32a32 32 0 0 1 32-32h832a32 32 0 0 1 32 32V592zM240.64 768h544l87.68-144H152.96zM896 0H128V560h768zM512 96a192 192 0 1 1-192 192 192 192 0 0 1 192-192z m0 64a128 128 0 0 0-64 18.56L621.44 352A128 128 0 0 0 512 160z m0 256a128 128 0 0 0 65.6-18.56l-175.04-175.04A128 128 0 0 0 512 416z"  horiz-adv-x="1024" />
      
      <glyph glyph-name="circle-up" unicode="&#59462;" d="M512 832a448 448 0 1 1 448-448A448 448 0 0 1 512 832z m0-832a384 384 0 1 0 384 384 384 384 0 0 0-384-384zM502.4 517.12a32 32 0 0 1-22.4-9.28l-203.52-203.52 45.12-45.44 180.8 181.12 181.12-181.12 45.12 45.44-203.52 203.52a32 32 0 0 1-22.72 9.28z"  horiz-adv-x="1024" />
      
      <glyph glyph-name="product-right-Fill" unicode="&#59718;" d="M813.76 780.8a51.52 51.52 0 0 1-40.32 19.2H250.56a51.52 51.52 0 0 1-40.32-19.2L96 568.96h832zM96 16A48 48 0 0 1 144-32h736a48 48 0 0 1 48 48V512H96z m231.68 290.88l132.48-118.08L704 430.72l53.44-59.84-294.4-292.16-185.6 165.44z"  horiz-adv-x="1024" />
      
      <glyph glyph-name="cloud-faild-Fill" unicode="&#59463;" d="M778.56 512v18.56a272.32 272.32 0 0 1-269.44 274.24 272.32 272.32 0 0 1-269.44-274.24v-24.32A251.52 251.52 0 0 1 64 271.36a256 256 0 0 1 243.52-248.64v-1.92h6.08a224 224 0 1 0 396.8 0h20.48v1.6A249.92 249.92 0 0 1 778.56 512zM608 240l-96-96-96 96-48-48 96-96-96-96 48-48 96 96 96-96 48 48-96 96 96 96-48 48z"  horiz-adv-x="1024" />
      
      <glyph glyph-name="product-right" unicode="&#59719;" d="M960 592.32a32 32 0 0 1-2.24 10.88 9.6 9.6 0 0 1 0 2.56 11.52 11.52 0 0 1 0 2.88l-128 208A32 32 0 0 1 800 832H224a32 32 0 0 1-27.52-15.36L68.8 608a11.52 11.52 0 0 1 0-2.88v-2.56a32 32 0 0 1-4.8-10.24V-32a32 32 0 0 1 32-32h832a32 32 0 0 1 32 32V592zM240.64 768h544l87.68-144H152.96zM896 0H128V560h768zM747.52 392.96l-44.16 46.08-247.36-235.84-136.64 117.12-41.6-48.64 180.48-154.88 289.28 276.16z"  horiz-adv-x="1024" />
      
      <glyph glyph-name="cloud-sucess-Fill" unicode="&#59464;" d="M778.56 515.2v18.56a272 272 0 0 1-269.44 274.24 272 272 0 0 1-269.44-274.24v-24.32A250.88 250.88 0 0 1 64 274.56a256 256 0 0 1 243.52-248.64v-1.92h6.08a224 224 0 1 0 396.8 0h20.48v1.92a249.92 249.92 0 0 1 47.68 489.28zM469.12 53.12l-96.96 83.2-41.6-48.64 140.8-120.96 222.08 212.16-44.16 46.4-180.16-172.16z"  horiz-adv-x="1024" />
      
      <glyph glyph-name="mail-right-Fill" unicode="&#59720;" d="M784 352a207.68 207.68 0 0 0 176-97.6V688A48 48 0 0 1 912 736h-800A48 48 0 0 1 64 688v-608A48 48 0 0 1 112 32H608a207.68 207.68 0 0 0 176 320zM512 272a48.32 48.32 0 0 0-33.92 14.08l-304 304a48 48 0 1 0 67.84 67.84L512 387.84l270.08 270.08a48 48 0 1 0 67.84-67.84l-304-304a48.32 48.32 0 0 0-33.92-14.08zM937.28 225.28l-180.16-172.16-96.96 83.2-41.6-48.64 140.8-120.96 222.08 212.16-44.16 46.4z"  horiz-adv-x="1024" />
      
      <glyph glyph-name="cloud-sucess" unicode="&#59465;" d="M504.96 56l-87.04 80.64-43.52-46.72 132.8-123.52 207.36 214.72-45.76 44.48-163.84-169.6zM771.2 528a262.4 262.4 0 0 1-524.48-1.6h15.36A242.24 242.24 0 0 1 64 295.68c0-130.88 114.88-237.44 256-237.44v64c-106.24 0-192 77.76-192 173.44s86.08 173.12 192 173.12h7.36l2.56 64h-19.2a198.08 198.08 0 0 0 395.84 0A236.16 236.16 0 0 1 540.8 448l48.96-40.96a173.12 173.12 0 1 0 138.88-284.16l2.24-64A237.44 237.44 0 0 1 771.2 528z"  horiz-adv-x="1024" />
      
      <glyph glyph-name="question-Fill" unicode="&#59721;" d="M512 832a448 448 0 1 1 448-448A448 448 0 0 1 512 832z m49.28-686.4h-98.56v106.24h98.56z m33.6 248a93.12 93.12 0 0 1-37.76-73.6v-6.72h-98.56v11.84c0 42.88 17.6 74.24 66.24 116.48a82.24 82.24 0 0 1 35.84 64 41.6 41.6 0 0 1-46.4 44.16c-37.12 0-49.92-24.64-53.44-56h-92.8c3.2 53.76 38.4 128 148.16 128s139.84-68.48 139.84-118.08c0-39.68-13.44-67.52-61.12-110.08z"  horiz-adv-x="1024" />
      
      <glyph glyph-name="cloud-upload" unicode="&#59466;" d="M512 265.6l-128-128h96V-32h64v169.6h96l-128 128zM771.2 529.6a262.4 262.4 0 0 1-524.48 0h15.04A241.6 241.6 0 0 1 64 297.6c0-130.88 114.88-237.44 256-237.44v64c-106.24 0-192 77.76-192 173.44s86.08 173.12 192 173.12h7.36l2.56 64h-19.2a198.08 198.08 0 0 0 395.84 0A235.84 235.84 0 0 1 540.8 448l48.96-40.96a173.12 173.12 0 1 0 138.88-284.16h-16.96v-64h19.2a237.12 237.12 0 0 1 40.32 470.72z"  horiz-adv-x="1024" />
      
      <glyph glyph-name="purchase" unicode="&#59722;" d="M128 423.04a345.6 345.6 0 0 0 690.88 0h64A409.6 409.6 0 1 1 473.6 14.08v64A345.6 345.6 0 0 0 128 423.04zM325.76 423.04a147.84 147.84 0 0 0 295.68 0h64a211.84 211.84 0 1 1-211.84-211.52v64a147.84 147.84 0 0 0-147.84 147.52zM950.72 160l-197.76 197.44a32 32 0 0 1-26.88 9.28l-134.4-17.28-96 96-45.12-45.44 96-96-16.96-134.08a32 32 0 0 1 8.96-26.88L736-54.72a32 32 0 0 1 22.4-9.28 40.32 40.32 0 0 1 10.56 1.6 32 32 0 0 1 21.12 26.24l16 125.12 125.44 16a32 32 0 0 1 26.24 21.44 32 32 0 0 1-7.04 33.6z m-176.64-9.92a32 32 0 0 1-27.84-27.84L736 36.8l-140.8 140.16 12.8 109.44 109.76 14.08L859.2 160z"  horiz-adv-x="1024" />
      
      <glyph glyph-name="cloud-download" unicode="&#59467;" d="M544 256h-64v-182.4h-96l128-128 128 128h-96V256zM771.2 529.6a262.4 262.4 0 0 1-524.48 0h15.04A241.92 241.92 0 0 1 64 297.6c0-130.88 114.88-237.44 256-237.44v64c-106.24 0-192 77.76-192 173.44s86.08 173.12 192 173.12h7.36l2.56 64h-19.2a198.08 198.08 0 0 0 395.84 0A235.84 235.84 0 0 1 540.8 448l48.96-40.96a173.12 173.12 0 1 0 138.88-284.16h-16.96v-64h19.2a237.12 237.12 0 0 1 40.32 470.72z"  horiz-adv-x="1024" />
      
      <glyph glyph-name="magnifier-fill" unicode="&#59723;" d="M962.24 21.76L778.56 207.04a384 384 0 0 1-24 509.76 374.72 374.72 0 0 1-532.48 0 384 384 0 0 1 0-536.64 373.12 373.12 0 0 1 486.72-39.04l184.96-186.88z m-672 225.92a288 288 0 0 0 0 401.28 278.08 278.08 0 0 0 396.16 0 285.76 285.76 0 0 0 0-401.28 278.08 278.08 0 0 0-396.16 0z"  horiz-adv-x="1024" />
      
      <glyph glyph-name="compass" unicode="&#59468;" d="M512 832a448 448 0 1 1 448-448A448 448 0 0 1 512 832z m0-832a384 384 0 1 0 384 384 384 384 0 0 0-384-384zM676.8 573.44l-256-96a32 32 0 0 1-18.88-18.88l-96-256a32 32 0 0 1 7.36-32 32 32 0 0 1 22.72-9.6 26.88 26.88 0 0 1 11.2 2.24l256 96a32 32 0 0 1 18.88 18.56l96 256a32 32 0 0 1-7.36 33.92 32 32 0 0 1-33.92 5.76z m-238.72-200.96l83.2-77.44-130.56-48.96zM576 332.8l-102.72 96 160 60.48z"  horiz-adv-x="1024" />
      
      <glyph glyph-name="question" unicode="&#59724;" d="M514.24 603.52c-98.56 0-130.24-64-132.8-113.92h83.2c3.2 28.16 14.72 50.24 48 50.24a37.44 37.44 0 0 0 41.6-39.68 73.92 73.92 0 0 0-32-58.88c-43.84-38.08-59.52-66.24-59.52-104.64v-10.56h88.64v6.08a82.88 82.88 0 0 0 33.6 65.6c42.88 38.4 55.04 64 55.04 99.52 0 44.8-28.48 105.6-125.76 106.24zM462.72 255.36h88.64V160h-88.64zM512 832a448 448 0 1 1 448-448A448 448 0 0 1 512 832z m0-832a384 384 0 1 0 384 384 384 384 0 0 0-384-384z"  horiz-adv-x="1024" />
      
      <glyph glyph-name="compass-Fill" unicode="&#59469;" d="M512 832a448 448 0 1 1 448-448A448 448 0 0 1 512 832z m210.88-278.72l-102.4-259.84a32 32 0 0 0-17.92-17.92l-259.84-102.4a37.12 37.12 0 0 0-11.84-2.24 32 32 0 0 0-22.4 9.6 32 32 0 0 0-7.36 34.24l102.4 259.84a32 32 0 0 0 17.92 17.92l259.84 102.4a32 32 0 0 0 41.6-41.6zM578.88 362.24l57.6 145.92-146.24-57.28 88.64-88.64zM387.84 259.52l145.92 57.6-88.64 88.64-57.28-146.24z"  horiz-adv-x="1024" />
      
      <glyph glyph-name="message-inquiry" unicode="&#59725;" d="M928 768H96a32 32 0 0 1-32-32v-556.8a32 32 0 0 1 32-32h268.8l123.52-136.64A32 32 0 0 1 512 0a32 32 0 0 1 21.12 8l157.44 139.2H928a32 32 0 0 1 32 32V736a32 32 0 0 1-32 32z m-32-556.8h-217.6a32 32 0 0 1-21.12-8l-142.72-128-112 123.84a32 32 0 0 1-23.68 10.56H128V704h768zM512 350.08A43.84 43.84 0 0 0 466.24 384h-58.88a83.52 83.52 0 0 1 78.72-76.8v-33.6h49.92v34.88a78.4 78.4 0 0 1 75.84 80c0 44.16-23.04 69.12-85.12 86.4-44.48 12.8-54.4 20.8-54.4 39.04 0 12.8 7.68 28.48 34.24 28.48a35.2 35.2 0 0 0 40-30.08h59.2a77.12 77.12 0 0 1-73.28 72v26.56H483.2v-27.2a77.76 77.76 0 0 1-70.4-75.52c0-39.04 20.48-64 90.88-85.12 38.4-11.2 49.28-21.12 49.28-41.6s-8.96-31.36-40.96-31.36z"  horiz-adv-x="1024" />
      
      <glyph glyph-name="cloud-Fill" unicode="&#59470;" d="M890.24 416c-259.2 124.16-388.16-75.2-393.28-83.84L416 381.76c0 2.24 122.88 194.24 358.08 168a268.8 268.8 0 0 1-534.4-48v-24.32A250.88 250.88 0 0 1 64 242.56a256 256 0 0 1 243.52-248.64v-1.92h423.36v1.92a249.28 249.28 0 0 1 160 421.44z"  horiz-adv-x="1024" />
      
      <glyph glyph-name="reload-left" unicode="&#59726;" d="M945.6 122.88L931.52 320l-177.92-86.4 70.72-41.6A367.36 367.36 0 1 0 832 563.52l55.68 32A432.32 432.32 0 1 1 880 160z"  horiz-adv-x="1024" />
      
      <glyph glyph-name="computer" unicode="&#59471;" d="M928 800H96a32 32 0 0 1-32-32v-576a32 32 0 0 1 32-32h384v-128H288v-64h448v64h-192v128h384a32 32 0 0 1 32 32V768a32 32 0 0 1-32 32z m-32-576H128V736h768z"  horiz-adv-x="1024" />
      
      <glyph glyph-name="radio-Fill" unicode="&#59727;" d="M343.04 381.44A93.44 93.44 0 1 1 436.48 288a93.12 93.12 0 0 1-93.44 93.44zM912 592h-800A48 48 0 0 1 64 544v-512a48 48 0 0 1 48-48h800A48 48 0 0 1 960 32V544a48 48 0 0 1-48 48zM343.04 120A168 168 0 1 0 512 288a168.32 168.32 0 0 0-168.96-168z m504 56h-261.12v74.56h261.12z m0 149.44h-261.12V400h261.12zM847.04 724.8A48 48 0 0 1 800 772.8H224a48 48 0 0 1-48-48v-89.6h672z"  horiz-adv-x="1024" />
      
      <glyph glyph-name="cloud-upload-Fill" unicode="&#59472;" d="M352 129.28h127.36V-64h65.28v193.28H672L512 288l-160-158.72zM778.56 515.2v18.56a272 272 0 0 1-269.44 274.24 272 272 0 0 1-269.44-274.24v-24.32A250.88 250.88 0 0 1 64 274.56a256 256 0 0 1 243.52-248.64v-1.92h6.08a224 224 0 1 0 396.8 0h20.48v1.92a249.92 249.92 0 0 1 47.68 489.28z"  horiz-adv-x="1024" />
      
      <glyph glyph-name="repeat" unicode="&#59728;" d="M342.4 706.24a352 352 0 0 0 272 27.52 357.12 357.12 0 0 0 202.88-160l-88.96-34.88 162.88-97.92 66.88 188.16-80.64-32a420.48 420.48 0 0 1-244.16 197.44 416 416 0 0 1-320-32A428.48 428.48 0 0 1 118.4 544l59.52-23.68a363.84 363.84 0 0 0 164.48 185.92zM683.84 58.56a352 352 0 0 0-272.64-22.4 358.4 358.4 0 0 0-209.28 180.48L281.28 256l-163.2 86.72-52.16-193.92 78.72 39.04a422.4 422.4 0 0 1 376.96-233.28 413.44 413.44 0 0 1 192 47.04 424.96 424.96 0 0 1 214.4 261.44l-61.44 17.92a360.64 360.64 0 0 0-182.72-222.4z"  horiz-adv-x="1024" />
      
      <glyph glyph-name="computer-Fill" unicode="&#59473;" d="M877.44 790.08h-768a48 48 0 0 1-48-48v-562.24a48 48 0 0 1 48-48h336v-77.76H290.24v-96h406.08v96h-154.88v77.76h336a48 48 0 0 1 48 48V742.08a48 48 0 0 1-48 48z"  horiz-adv-x="1024" />
      
      <glyph glyph-name="remind" unicode="&#59729;" d="M880 128l-114.24 186.56V480a259.52 259.52 0 0 1-195.84 249.92 53.76 53.76 0 0 1 1.6 14.4 70.4 70.4 0 1 1-140.48 0 71.68 71.68 0 0 1 2.24-16.32A258.88 258.88 0 0 1 244.48 480v-166.08L123.52 128a32 32 0 0 1 26.56-49.28h218.56a132.8 132.8 0 0 1 265.6 0h218.24a32 32 0 0 1 28.16 16.32A32 32 0 0 1 880 128z m-378.56-112a69.12 69.12 0 0 0-68.8 64h137.6a69.76 69.76 0 0 0-68.8-64z m-292.16 128L303.36 288a32 32 0 0 1 5.12 17.28V480a196.8 196.8 0 0 0 393.28 0v-175.68a34.24 34.24 0 0 1 4.48-16.64l89.28-145.6z"  horiz-adv-x="1024" />
      
      <glyph glyph-name="construction" unicode="&#59474;" d="M780.16 643.84V768a32 32 0 0 1-32 32H128a32 32 0 0 1-32-32v-262.4a32 32 0 0 1 32-32h620.16a32 32 0 0 1 32 32V579.84H864v-182.72h-242.56a149.44 149.44 0 0 1-144-126.08h-54.72a32 32 0 0 1-32-32V0a32 32 0 0 1 32-32h165.76a32 32 0 0 1 32 32v239.04a32 32 0 0 1-32 32H544a83.84 83.84 0 0 0 77.44 62.08H928V643.84z m-64-105.92H160V736h556.16zM556.48 32h-101.76v175.04h101.76z"  horiz-adv-x="1024" />
      
      <glyph glyph-name="printer-Fill" unicode="&#59730;" d="M368 656h384V800h-480v-144h96zM880 608h-736A48 48 0 0 1 96 560v-416A48 48 0 0 1 144 96h96v128h544v-128h96a48 48 0 0 1 48 48v416A48 48 0 0 1 880 608z m-448-240h-192v96h192zM304 144V0h416v160h-416v-16z"  horiz-adv-x="1024" />
      
      <glyph glyph-name="cosmetics" unicode="&#59475;" d="M775.36 96h-64V488.32a32 32 0 0 1-32 32h-22.72V689.28a32 32 0 0 1-16.64 28.16l-211.52 110.72a32 32 0 0 1-32 0 32 32 0 0 1-15.36-27.52v-279.68h-23.68a32 32 0 0 1-32-32V96h-64a32 32 0 0 1-32-32v-96a32 32 0 0 1 32-32h512a32 32 0 0 1 32 32v96a32 32 0 0 1-30.08 32zM445.76 746.88l146.56-77.12v-149.44H448z m-54.72-290.56h256V96h-256zM743.36 0h-448v32h448zM439.36 395.52h160v-64h-160z"  horiz-adv-x="1024" />
      
      <glyph glyph-name="product-minus" unicode="&#59731;" d="M949.44 592.32a43.84 43.84 0 0 1-2.24 10.88v2.56a11.52 11.52 0 0 1 0 2.88l-128 208a32 32 0 0 1-28.48 15.36H211.84a32 32 0 0 1-27.2-15.36L57.92 608a11.52 11.52 0 0 0 0-2.88v-2.56a32 32 0 0 1-2.24-10.88V-32a32 32 0 0 1 32-32h832a32 32 0 0 1 32 32V592zM230.08 768h544l87.68-144H142.4z m655.36-768h-768V560h768zM309.44 320h384v-64h-384z"  horiz-adv-x="1024" />
      
      <glyph glyph-name="construction-Fill" unicode="&#59476;" d="M567.04 304.64h321.6V650.24h-150.72V755.52a48 48 0 0 1-48 48h-544a48 48 0 0 1-48-48v-256a48 48 0 0 1 48-48h544a48 48 0 0 1 48 48v54.72h54.72v-153.6h-224a164.16 164.16 0 0 1-156.48-128h-43.52A48 48 0 0 1 320 224v-232.64a48 48 0 0 1 48-48h165.44a48 48 0 0 1 48 48V224a48 48 0 0 1-48 48h-20.16a69.12 69.12 0 0 0 53.76 32.64zM672 512H160v32h512z"  horiz-adv-x="1024" />
      
      <glyph glyph-name="qrcode" unicode="&#59732;" d="M92.48 412.48h384v384h-384z m64 320h256v-256h-256zM924.48 796.48h-384v-384h384z m-64-320h-256v256h256zM92.48-35.52h384v384h-384z m64 320h256v-256h-256zM236.48 204.48h96v-96h-96zM236.48 652.48h96v-96h-96zM684.48 652.48h96v-96h-96zM764.48 348.48h160v-96h-160zM924.48-35.52V150.4h-99.2v-89.92h-92.8v-96h192zM764.48 156.48v96h-96v96h-128v-128h128v-64h-32v-64h-96v-128h96v96h96v96h32z"  horiz-adv-x="1024" />
      
      <glyph glyph-name="cosmetics-Fill" unicode="&#59477;" d="M704 40V426.88a48.96 48.96 0 0 1 0 9.6 121.28 121.28 0 0 1-47.04 77.44V627.84a48.96 48.96 0 0 1-18.56 38.08l-192 148.16a48 48 0 0 1-78.4-38.08v-259.2a111.36 111.36 0 0 1-48-85.12 24.32 24.32 0 0 1 0-4.8v-386.88H240v-96h544v96z m-320 336h256v-64h-256z m176 228.16v-68.48h-96V678.4z"  horiz-adv-x="1024" />
      
      <glyph glyph-name="right" unicode="&#59733;" d="M352-64l-44.16 43.84L712 384 307.84 788.16 352 832l428.16-425.28a32 32 0 0 0 0-45.44z"  horiz-adv-x="1024" />
      
      <glyph glyph-name="coupon" unicode="&#59478;" d="M935.36 495.68l24.64 5.76V736H64v-235.2l24-6.08a114.56 114.56 0 0 0 0-221.44l-24-6.08V32h896v234.56l-24.64 5.76a115.2 115.2 0 0 0 0 224zM896 217.92V96H128v123.2a179.2 179.2 0 0 1 0 329.6V672h768v-121.92a179.2 179.2 0 0 1 0-332.16zM416 473.92h192v-64h-192zM416 345.92h192v-64h-192z"  horiz-adv-x="1024" />
      
      <glyph glyph-name="reload-right" unicode="&#59734;" d="M934.08 466.24l14.08 197.76-60.16-34.88A440.96 440.96 0 0 1 75.84 384a445.76 445.76 0 0 1 442.24-448 442.24 442.24 0 0 1 384 225.92l-55.68 32A376.96 376.96 0 0 0 139.84 384 381.44 381.44 0 0 0 518.08 768 376.64 376.64 0 0 0 832 596.8l-75.52-43.84z"  horiz-adv-x="1024" />
      
      <glyph glyph-name="coupon-Fill" unicode="&#59479;" d="M937.6 473.6l37.12 8.64V736h-896v-256l36.16-8.96a90.88 90.88 0 0 0 0-176.32L78.72 288v-256h896v256l-37.12 8.64a91.52 91.52 0 0 0 0 177.92zM672 243.52h-290.56v72.96H672z m0 209.6h-290.56v72.64H672z"  horiz-adv-x="1024" />
      
      <glyph glyph-name="rmb" unicode="&#59735;" d="M512 832a448 448 0 1 1 448-448A448 448 0 0 1 512 832z m0-832a384 384 0 1 0 384 384 384 384 0 0 0-384-384zM654.4 595.84l-138.24-138.56-138.24 138.56-45.12-45.44 114.24-114.56h-63.68v-64h100.8v-67.2h-100.8v-64h100.8v-100.8h64v100.8h101.12v64h-101.12v67.2h101.12v64h-64l114.56 114.56-45.44 45.44z"  horiz-adv-x="1024" />
      
      <glyph glyph-name="cpu" unicode="&#59480;" d="M352.32 544h320v-320h-320zM928 487.04v64h-102.4V697.92h-149.76V800h-64v-102.08h-209.92V800h-64v-102.08H198.72v-146.88H96v-64h102.4v-209.92H96v-64h102.4v-141.76h139.2V-32h64v103.36h209.92V-32h64v103.36h149.44v141.76H928v64h-102.4v209.92z m-166.4-352H262.72V633.92h498.56z"  horiz-adv-x="1024" />
      
      <glyph glyph-name="remind-Fill" unicode="&#59736;" d="M876.16 179.2l-101.44 165.44v146.56A256 256 0 0 1 576 738.88a64 64 0 0 1 4.16 22.4 64 64 0 1 1-128 0 66.88 66.88 0 0 1 4.8-24 256 256 0 0 1-194.56-246.08v-145.92l-107.52-165.12a47.68 47.68 0 0 1 40.32-73.92h196.8a123.52 123.52 0 0 1 246.4 0h196.8a47.68 47.68 0 0 1 40.96 72.96z"  horiz-adv-x="1024" />
      
      <glyph glyph-name="cpu-Fill" unicode="&#59481;" d="M317.44 518.08h288v-288h-288zM877.76 463.04v96h-96V694.08h-135.68v96h-96v-96h-177.6v96h-96v-96H141.44v-135.04h-96v-96h96v-177.92h-96v-96h96v-135.04h135.04v-96h96v96h177.6v-96h96v96h135.36v135.04h96v96h-96v177.92z m-192-312.96h-448v448h448z"  horiz-adv-x="1024" />
      
      <glyph glyph-name="message-talk-Fill" unicode="&#59737;" d="M912 496h-100.16v-224l-35.84-32h-320v-120.96a48 48 0 0 1 48-48h61.76l64-71.36a49.28 49.28 0 0 1 35.84-15.68 47.04 47.04 0 0 1 32 12.16l85.12 74.88h128a48 48 0 0 1 48 48V448a48 48 0 0 1-46.72 48zM708.16 784H112A48 48 0 0 1 64 736v-404.8a48 48 0 0 1 48-48h106.88L295.04 192a48.96 48.96 0 0 1 33.92-16.96h2.56a47.68 47.68 0 0 1 32 13.12l99.2 94.08h244.48a48 48 0 0 1 48 48V736a48 48 0 0 1-47.04 48zM256 480a48 48 0 1 0 48 48A48 48 0 0 0 256 480z m144 0a48 48 0 1 0 48 48 48 48 0 0 0-48-48z m144 0a48 48 0 1 0 48 48A48 48 0 0 0 544 480z"  horiz-adv-x="1024" />
      
      <glyph glyph-name="coupon-2-Fill" unicode="&#59482;" d="M937.6 473.6l37.12 8.64V736h-896v-256l36.16-8.96a90.88 90.88 0 0 0 0-176.32L78.72 288v-256h896v256l-37.12 8.64a91.52 91.52 0 0 0 0 177.92z m-380.16-245.44v-51.52h-50.88v49.28A176.96 176.96 0 0 0 416 262.4l32 48.32a128 128 0 0 1 74.56-28.8c29.76 0 42.56 11.52 42.56 33.6 0 50.24-137.6 49.28-137.6 136.96a88.32 88.32 0 0 0 79.04 89.6V592.64h50.88V544a133.12 133.12 0 0 0 77.44-39.04l-38.4-40.96a83.84 83.84 0 0 1-56.96 24.64c-24.96 0-38.72-9.6-38.72-32C500.8 409.6 640 413.76 640 320a90.88 90.88 0 0 0-82.56-91.84z"  horiz-adv-x="1024" />
      
      <glyph glyph-name="rmb-Fill" unicode="&#59738;" d="M512 832a448 448 0 1 1 448-448A448 448 0 0 1 512 832z m142.72-425.28V352h-98.88v-41.6h98.88V256h-98.88v-76.8h-89.6V256h-102.4v54.4h102.4V352h-102.4v54.72H448L336.32 588.8h96c43.2-84.48 70.72-139.84 82.24-166.72h1.92c0 3.84 3.2 8.64 5.12 14.72s16.96 36.8 40.64 82.56l35.2 69.44h90.56L576 406.72z"  horiz-adv-x="1024" />
      
      <glyph glyph-name="crov" unicode="&#59483;" d="M718.08 832l-242.88-750.4-44.8 130.24-154.88-0.32 118.4-275.52h152.32L944 832h-225.92zM281.6 659.2H80l168.64-377.28h155.2L281.6 659.2z"  horiz-adv-x="1024" />
      
      <glyph glyph-name="rmb-refund" unicode="&#59739;" d="M652.8 595.84l-138.56-138.56-138.24 138.56-45.12-45.44 114.56-114.56h-64v-64h100.8v-67.2h-100.8v-64h100.8v-100.8h64v100.8h101.12v64h-101.12v67.2h101.12v64h-64l114.56 114.56-45.12 45.44zM505.92 832A441.6 441.6 0 0 1 136 629.12L75.84 664l14.08-197.76 177.92 86.72L192 596.8A376.64 376.64 0 0 0 505.92 768a384 384 0 0 0 0-768 377.6 377.6 0 0 0-328 192l-55.68-32a442.24 442.24 0 0 1 384-225.92 448 448 0 0 1 0 896z"  horiz-adv-x="1024" />
      
      <glyph glyph-name="crown" unicode="&#59484;" d="M960 576a64 64 0 0 1-128 0 64 64 0 0 1 8.96-32 489.92 489.92 0 0 0-144-83.52c-24.32 21.76-97.6 144-154.88 251.2A64 64 0 1 1 448 768a64 64 0 0 1 32-55.36c-49.92-106.88-117.12-227.84-145.28-252.16a1154.88 1154.88 0 0 0-149.12 88A61.12 61.12 0 0 1 192 576a64 64 0 1 1-64-64l120.96-360.32a32 32 0 0 1 32-22.08H736a32 32 0 0 1 30.08 21.12L897.92 512A64 64 0 0 1 960 576z m-246.08-384H302.4l-87.36 261.44a544 544 0 0 1 112.64-57.6c20.8-5.12 62.4-15.36 185.28 235.52 52.48-96 122.56-212.8 156.8-229.44 26.56-13.12 71.36 0 133.76 38.08zM160 32h704v-64H160z"  horiz-adv-x="1024" />
      
      <glyph glyph-name="scan-code" unicode="&#59740;" d="M160 416h704v-64H160zM128 768h192V832H96a32 32 0 0 1-32-32v-224h64zM928 832h-224v-64h192v-192h64V800a32 32 0 0 1-32 32zM128 192H64v-224a32 32 0 0 1 32-32h224v64H128zM896 0h-192v-64h224a32 32 0 0 1 32 32v224h-64z"  horiz-adv-x="1024" />
      
      <glyph glyph-name="crossborder" unicode="&#59485;" d="M980.16 541.44c-17.92 47.04-80 74.24-184.64 81.6a365.12 365.12 0 0 1-633.28-160l-11.84 19.84C38.08 416 32 360.96 43.84 325.44c16.96-45.76 74.56-66.88 135.68-76.48a365.44 365.44 0 0 1 704 135.04 42.88 42.88 0 0 1 0 6.4c102.72 62.4 108.48 115.84 96.64 151.04z m-876.48-192c-3.52 9.28 8.64 32 50.88 61.76v-25.6A346.88 346.88 0 0 1 160 317.76c-37.76 9.28-53.44 22.08-56.32 30.08z m416-265.6a302.08 302.08 0 0 0-266.24 160H300.8v64H253.12l-24 1.6A314.24 314.24 0 0 0 217.28 384a301.76 301.76 0 0 0 600.32 42.24 869.12 869.12 0 0 0-130.24-54.08l20.16-60.8a972.16 972.16 0 0 1 112 44.48 302.4 302.4 0 0 0-300.48-273.6z m356.8 377.92a362.24 362.24 0 0 1-32 90.88c52.48-9.6 73.6-25.28 76.8-33.92s-8.32-29.76-44.8-56.96zM617.6 424.96l-65.92-26.88-128 98.24-33.6-13.44L480 368.96l-70.08-28.48h-2.24l-52.16 40-19.2-7.68 56.32-70.72 8.96-89.92 19.2 7.68 9.92 68.16 71.36 29.12 14.72-147.84 32 13.76 24 163.2 64 26.24a28.48 28.48 0 0 1 15.68 37.44 28.8 28.8 0 0 1-34.88 15.04z"  horiz-adv-x="1024" />
      
      <glyph glyph-name="radio" unicode="&#59741;" d="M576 416h224v-64h-224zM576 256h224v-64h-224zM928 608h-96V768a32 32 0 0 1-32 32H224a32 32 0 0 1-32-32v-160H96a32 32 0 0 1-32-32v-576a32 32 0 0 1 32-32h832a32 32 0 0 1 32 32V576a32 32 0 0 1-32 32zM256 736h512v-128H256z m640-704H128V544h768zM352 464a160 160 0 1 1 160-160 160 160 0 0 1-160 160z m0-256a96 96 0 1 0 96 96 96 96 0 0 0-96-96z"  horiz-adv-x="1024" />
      
      <glyph glyph-name="crossborder-Fill" unicode="&#59486;" d="M960 584.96c-19.2 49.6-85.44 78.72-196.48 87.04a367.36 367.36 0 0 1-621.76-216.32c-96-64-103.36-117.44-90.24-152.32C69.12 256 128 233.92 189.12 224a367.68 367.68 0 0 1 685.44 185.6 380.8 380.8 0 0 1-2.88 42.88 253.12 253.12 0 0 1 83.2 82.24A62.08 62.08 0 0 1 960 584.96z m-848-259.2c-3.84 9.6 4.8 27.2 28.48 48.64a362.24 362.24 0 0 1 15.68-77.12c-28.16 9.6-41.92 20.8-44.48 28.48z m540.16 96l-70.4-28.48-26.24-179.2-36.8-15.04-16.32 161.92-77.76-32-12.16-72.96-21.12-8.32-9.92 98.24L320 422.4l21.12 8.32 56.96-43.52h2.56l76.8 32-98.88 124.8 37.44 15.04 140.8-107.52 71.36 28.48a32 32 0 1 0 23.68-58.24z m205.12 97.92a347.52 347.52 0 0 1-36.8 79.68c49.92-9.6 72.32-24.96 78.4-35.2a136 136 0 0 0-41.92-43.84z"  horiz-adv-x="1024" />
      
      <glyph glyph-name="reply" unicode="&#59742;" d="M928-32a32 32 0 0 0-27.84 16.32c-120.32 212.48-237.76 262.08-418.24 268.48v-199.36a32 32 0 0 0-19.84-29.44 32 32 0 0 0-34.88 8L73.28 388.16a32 32 0 0 0 0 45.12L427.2 790.4a32 32 0 0 0 34.88 7.04 32 32 0 0 0 19.84-29.44v-202.56C777.6 544 960 329.92 960 0a32 32 0 0 0-24-32 34.24 34.24 0 0 0-8 0zM449.92 317.44c183.04-1.92 314.56-36.48 436.16-194.88-39.36 234.24-196.48 374.08-438.08 380.48a32 32 0 0 0-32 32V690.24l-274.88-279.36 276.8-279.68v154.24a32 32 0 0 0 32 32z"  horiz-adv-x="1024" />
      
      <glyph glyph-name="crown-Fill" unicode="&#59487;" d="M960 554.88a80 80 0 1 1-160 0 83.52 83.52 0 0 1 4.8-27.2 563.2 563.2 0 0 0-114.24-61.44 1622.72 1622.72 0 0 0-128 189.12 81.92 81.92 0 0 1 29.76 64 80 80 0 1 1-160 0 82.24 82.24 0 0 1 32-64 1109.44 1109.44 0 0 0-117.44-185.92 1316.16 1316.16 0 0 0-125.12 67.2 82.88 82.88 0 0 1 2.24 18.24 80.64 80.64 0 0 1-80 81.6 81.6 81.6 0 0 1 0-163.2l110.72-294.72a48 48 0 0 1 44.8-32h422.72a48 48 0 0 1 45.76 30.72l120.64 296.64A80.96 80.96 0 0 1 960 554.88zM192 64h640v-96H192z"  horiz-adv-x="1024" />
      
      <glyph glyph-name="save" unicode="&#59743;" d="M889.6 569.28l-213.44 220.8a32 32 0 0 1-23.04 9.92H157.44a32 32 0 0 1-32-32v-768a32 32 0 0 1 32-32h709.12a32 32 0 0 1 32 32V547.2a32 32 0 0 1-8.96 22.08zM341.44 736H608v-128h-266.56z m493.12-704H189.44V736h88v-160a32 32 0 0 1 32-32H640a32 32 0 0 1 32 32V702.4l162.56-168.32zM492.8 467.2A179.2 179.2 0 1 1 672 288a179.2 179.2 0 0 1-179.2 179.2z m0-294.4A115.2 115.2 0 1 0 608 288a115.52 115.52 0 0 0-115.2-115.2z"  horiz-adv-x="1024" />
      
      <glyph glyph-name="coupon-2" unicode="&#59488;" d="M604.48 371.84a113.6 113.6 0 0 1-28.48 18.56 310.72 310.72 0 0 1-30.08 12.16c-9.92 3.52-19.52 7.04-29.44 9.92a165.12 165.12 0 0 0-24.64 9.6 66.24 66.24 0 0 0-16.32 11.2 20.16 20.16 0 0 0-5.12 13.76 23.04 23.04 0 0 0 2.56 10.24 17.28 17.28 0 0 0 6.72 8.64 33.92 33.92 0 0 0 13.12 6.72 84.48 84.48 0 0 0 38.4 0 88 88 0 0 0 15.68-4.48 132.16 132.16 0 0 0 13.44-7.04 69.76 69.76 0 0 0 10.88-8.32 38.72 38.72 0 0 1 8.32-6.4l4.48 4.8 4.48 4.48 21.44 21.44 5.12 4.8 4.8 4.8v1.92a96 96 0 0 1-34.24 28.16 162.56 162.56 0 0 1-41.6 14.4V581.12h-54.72v-49.6a120.64 120.64 0 0 1-32-9.28 86.4 86.4 0 0 1-27.2-19.2 79.36 79.36 0 0 1-16-26.24 92.16 92.16 0 0 1-4.8-29.76 77.44 77.44 0 0 1 26.24-63.04 112.64 112.64 0 0 1 27.2-17.28c9.6-4.48 19.84-8.64 29.76-12.16l29.44-9.92a136.32 136.32 0 0 0 24.64-9.92 66.56 66.56 0 0 0 16.32-12.48 24 24 0 0 0 5.12-16 28.16 28.16 0 0 0-11.52-24.96 72.64 72.64 0 0 0-40.96-8.96 64 64 0 0 0-19.52 2.56 111.68 111.68 0 0 0-18.24 6.4 99.84 99.84 0 0 0-15.68 9.92 130.56 130.56 0 0 0-13.76 12.48 103.36 103.36 0 0 1-8.64 7.36l-4.48 2.56-5.44-5.44-5.44-5.44-16.64-16.32-5.76-5.76-5.12-5.12a45.44 45.44 0 0 1 2.56-5.76 102.72 102.72 0 0 1 15.36-18.56 129.92 129.92 0 0 1 21.76-16.64 156.48 156.48 0 0 1 26.56-12.48 170.88 170.88 0 0 1 25.92-6.72v-48.64H544v49.6a136.64 136.64 0 0 1 32 7.68 91.2 91.2 0 0 1 29.76 18.88 78.72 78.72 0 0 1 18.56 28.16 94.08 94.08 0 0 1 6.08 34.88 89.28 89.28 0 0 1-7.36 37.76 92.16 92.16 0 0 1-18.56 28.16zM935.36 495.68l24.64 5.76V736H64v-235.2l24-6.08a114.56 114.56 0 0 0 0-221.44l-24-6.08V32h896v234.56l-24.64 5.76a115.2 115.2 0 0 0 0 224zM896 217.92V96H128v123.2a179.2 179.2 0 0 1 0 329.6V672h768v-121.92a179.2 179.2 0 0 1 0-332.16z"  horiz-adv-x="1024" />
      
      <glyph glyph-name="rmb-transfer" unicode="&#59744;" d="M658.24 563.84l-138.24-138.24-138.24 138.24-45.12-45.12 114.56-114.56h-64v-64h100.8v-67.2H387.2v-64h100.8v-101.12h64v101.12h101.12v64h-101.12v67.2h101.12v64h-64l114.56 114.56-45.44 45.12zM346.24 706.24a352 352 0 0 0 272.32 27.52 359.04 359.04 0 0 0 202.88-160l-88.96-34.88L896 440.96l66.88 188.16-80.32-32a421.12 421.12 0 0 1-244.48 197.44 416 416 0 0 1-320-32 427.84 427.84 0 0 1-192-217.28l59.2-23.68a365.12 365.12 0 0 0 160.96 184.64zM687.68 58.56a352 352 0 0 0-272.32-22.4 359.04 359.04 0 0 0-209.6 180.48L285.12 256l-162.88 86.72-52.48-193.92 78.72 39.04a423.04 423.04 0 0 1 376.96-233.28 416 416 0 0 1 192 47.04 424.32 424.32 0 0 1 214.08 261.44l-61.44 17.92a360.64 360.64 0 0 0-182.4-222.4z"  horiz-adv-x="1024" />
      
      </font>
</defs>
</svg>
